<svg width="25" height="25" viewBox="0 0 25 25" fill="none" xmlns="http://www.w3.org/2000/svg">
<g id="Adobe_XD_CC_icon">
<g id="Surfaces">
<g id="UI_UX_Surface">
<g id="Outline_no_shadow">
<path id="Path" d="M4.42708 0H20.5729C23.0208 0 25 2.02991 25 4.5406V20.4594C25 22.9701 23.0208 25 20.5729 25H4.42708C1.97917 25 0 22.9701 0 20.4594V4.5406C0 2.02991 1.97917 0 4.42708 0Z" fill="#470137"/>
</g>
</g>
</g>
<g id="Outlined_Mnemonics_Logos">
<g id="Xd">
<path id="Path_2" d="M13.1387 7.8551L10.05 12.9669L13.3446 18.3885C13.3652 18.4298 13.3755 18.4711 13.3652 18.5124C13.3549 18.5537 13.3137 18.5228 13.2519 18.5331H10.8943C10.7295 18.5331 10.6163 18.5228 10.5442 18.4195C10.328 17.9858 10.1015 17.5624 9.8853 17.1286C9.66909 16.7052 9.4323 16.2715 9.1852 15.8274C8.93811 15.3834 8.69102 14.9393 8.44392 14.4849H8.42333C8.20713 14.929 7.97033 15.3731 7.73353 15.8171C7.49673 16.2612 7.25994 16.7052 7.03343 17.139C6.79664 17.5727 6.55984 18.0167 6.32304 18.4401C6.28186 18.5434 6.1995 18.5537 6.08624 18.5537H3.82122C3.78004 18.5537 3.74916 18.5744 3.74916 18.5228C3.73886 18.4814 3.74916 18.4401 3.76975 18.4092L6.97166 13.1425L3.85211 7.84477C3.82122 7.80346 3.81093 7.76216 3.83152 7.7415C3.85211 7.71052 3.89329 7.7002 3.93448 7.7002H6.27156C6.32304 7.7002 6.37452 7.71052 6.4157 7.72085C6.45688 7.7415 6.48777 7.77248 6.51866 7.81379C6.71427 8.25785 6.94077 8.7019 7.17757 9.14596C7.42466 9.59001 7.66146 10.0237 7.91885 10.4575C8.16594 10.8912 8.39245 11.3249 8.60865 11.769H8.62924C8.84545 11.3146 9.07195 10.8705 9.29845 10.4368C9.52496 10.0031 9.76175 9.56936 9.99855 9.13563C10.2353 8.7019 10.4618 8.25785 10.6884 7.83444C10.6986 7.79314 10.7192 7.75183 10.7501 7.73118C10.7913 7.71052 10.8325 7.7002 10.884 7.71052H13.0563C13.1078 7.7002 13.1593 7.73118 13.1696 7.78281C13.1799 7.79314 13.1593 7.83444 13.1387 7.8551Z" fill="#FF61F6"/>
<path id="Shape" fill-rule="evenodd" clip-rule="evenodd" d="M15.6818 18.2849C16.3716 18.605 17.1335 18.7599 17.8954 18.7496C18.4307 18.7496 18.9558 18.698 19.4809 18.605C20.0574 18.5017 20.6237 18.3365 21.159 18.1093C21.2311 18.0783 21.262 18.0164 21.262 17.9441C21.2604 17.917 21.2588 17.8892 21.2572 17.8608C21.2483 17.7046 21.2382 17.5286 21.2208 17.3451C21.2199 17.3243 21.2189 17.3036 21.218 17.2832C21.2087 17.0802 21.2002 16.8944 21.2002 16.7255V6.89435V6.8737C21.1899 6.83239 21.1487 6.79108 21.0973 6.80141H19.0073C18.9352 6.80141 18.9043 6.84272 18.9043 6.91501V10.1783C18.8472 10.1735 18.7944 10.1709 18.745 10.1685C18.6877 10.1658 18.6349 10.1632 18.5852 10.1576C18.4925 10.1473 18.4204 10.1473 18.369 10.1473C17.3497 10.1473 16.4849 10.3435 15.7642 10.7463C15.0847 11.118 14.5184 11.6757 14.1272 12.3469C13.7463 13.0079 13.5506 13.7617 13.5609 14.5259C13.5609 15.4657 13.7463 16.2505 14.1272 16.8804C14.4978 17.4897 15.0332 17.9854 15.6818 18.2849ZM18.9043 12.1404V16.6842C18.7808 16.7255 18.6675 16.7462 18.5337 16.7359C18.3998 16.7462 18.2557 16.7565 18.1013 16.7565C17.813 16.7565 17.5247 16.7152 17.2467 16.6223C16.9791 16.5396 16.7423 16.3951 16.5466 16.2092C16.3407 16.0026 16.1863 15.7548 16.0833 15.476C15.9598 15.1352 15.898 14.7738 15.9083 14.4123C15.9083 13.8753 16.0216 13.4313 16.2481 13.1008C16.4746 12.7703 16.7731 12.5122 17.1232 12.3366C17.4835 12.1507 17.8851 12.0681 18.2866 12.0681C18.3998 12.0681 18.5131 12.0784 18.6263 12.0888C18.719 12.0991 18.8117 12.1197 18.9043 12.1404Z" fill="#FF61F6"/>
</g>
</g>
</g>
</svg>
