<svg width="25" height="25" viewBox="0 0 25 25" fill="none" xmlns="http://www.w3.org/2000/svg">
<g id="Adobe_Illustrator_CC_icon">
<g id="Surfaces">
<g id="Drawing_Surface">
<g id="Outline_no_shadow">
<path id="Path" d="M4.42708 0H20.5729C23.0208 0 25 2.02991 25 4.5406V20.4594C25 22.9701 23.0208 25 20.5729 25H4.42708C1.97917 25 0 22.9701 0 20.4594V4.5406C0 2.02991 1.97917 0 4.42708 0Z" fill="#330000"/>
</g>
</g>
</g>
<g id="Outlined_Mnemonics_Logos">
<g id="Ai">
<path id="Shape" fill-rule="evenodd" clip-rule="evenodd" d="M8.88787 15.6781H12.7918L13.6523 18.0494C13.6733 18.1192 13.7468 18.169 13.8202 18.159H16.0136C16.1185 18.159 16.15 18.1092 16.1185 17.9996L12.2881 7.73694C12.2776 7.68712 12.2356 7.65723 12.1516 7.65723H9.46506H9.43358C9.3811 7.66719 9.33913 7.71701 9.34962 7.76683C9.34962 7.98603 9.32863 8.20523 9.28665 8.41447C9.25691 8.49919 9.23244 8.5789 9.2095 8.65361C9.20007 8.68434 9.19089 8.71423 9.18171 8.74328L5.80251 17.9797C5.77103 18.0993 5.80251 18.159 5.91795 18.159H7.8909C7.98535 18.169 8.0693 18.1092 8.09029 18.0195L8.88787 15.6781ZM12.1621 13.6554H9.49654C9.65396 13.2369 9.81138 12.7686 9.9583 12.2605C10.0623 11.9521 10.1622 11.6436 10.2606 11.3399C10.3211 11.1531 10.3811 10.968 10.441 10.7859C10.588 10.3574 10.7034 9.92897 10.7978 9.50052H10.8188C10.8598 9.63383 10.9007 9.77332 10.9435 9.91901C10.9775 10.0347 11.0126 10.1542 11.0497 10.2777C11.1337 10.5666 11.2281 10.8556 11.3331 11.1645C11.3855 11.3189 11.4354 11.4709 11.4852 11.6228C11.5351 11.7748 11.5849 11.9267 11.6374 12.0811C11.7319 12.3801 11.8263 12.669 11.9207 12.938C12.0152 13.1971 12.0992 13.4462 12.1621 13.6554Z" fill="#FF9A00"/>
<path id="Shape_2" fill-rule="evenodd" clip-rule="evenodd" d="M17.4727 9.01253C17.7245 9.24169 18.0603 9.37122 18.4067 9.36126C18.7635 9.38119 19.1203 9.25166 19.3616 9.01253C19.6135 8.76343 19.7394 8.43463 19.7289 8.09586C19.7394 7.76705 19.6135 7.44821 19.3826 7.20908C19.1518 6.97992 18.8369 6.86035 18.4276 6.86035C18.0813 6.86035 17.7455 6.97992 17.4936 7.20908C17.2418 7.43825 17.1053 7.75709 17.1158 8.09586C17.1053 8.43463 17.2313 8.76343 17.4727 9.01253ZM17.2313 10.3377V18.0098C17.2313 18.1094 17.2838 18.1692 17.3887 18.1692H19.4456C19.54 18.1692 19.582 18.1194 19.582 18.0098V10.3377C19.582 10.248 19.54 10.1982 19.4456 10.1982H17.3677C17.2733 10.1982 17.2313 10.2381 17.2313 10.3377Z" fill="#FF9A00"/>
</g>
</g>
</g>
</svg>
