<svg width="25" height="25" viewBox="0 0 25 25" fill="none" xmlns="http://www.w3.org/2000/svg">
<g id="Adobe_Photoshop_CC_icon">
<g id="Surfaces">
<g id="Photo_Surface">
<g id="Outline_no_shadow">
<path id="Path" d="M4.42708 0H20.5729C23.0208 0 25 2.02991 25 4.5406V20.4594C25 22.9701 23.0208 25 20.5729 25H4.42708C1.97917 25 0 22.9701 0 20.4594V4.5406C0 2.02991 1.97917 0 4.42708 0Z" fill="#001E36"/>
</g>
</g>
</g>
<g id="Outlined_Mnemonics_Logos">
<g id="Ps">
<path id="Shape" fill-rule="evenodd" clip-rule="evenodd" d="M5.20801 7.00195V17.819C5.20801 17.9136 5.24967 17.9557 5.33301 17.9557H7.31217H7.35384C7.42676 17.9452 7.47884 17.8821 7.46842 17.8085V14.4341H7.46845C7.66635 14.4341 7.81218 14.4341 7.91634 14.4446C8.02051 14.4551 8.18717 14.4551 8.43717 14.4551C9.29134 14.4551 10.0726 14.3605 10.7809 14.0977C11.458 13.8454 12.0413 13.4039 12.458 12.8152C12.8747 12.2265 13.083 11.4802 13.083 10.5761C13.083 10.1031 12.9997 9.65103 12.8434 9.20952C12.6768 8.75749 12.4163 8.34752 12.083 8.01112C11.6872 7.62217 11.208 7.32783 10.6872 7.14912C10.1038 6.92836 9.39551 6.82324 8.54134 6.82324C8.22884 6.82324 7.91634 6.82324 7.59342 6.83375C7.43753 6.83883 7.28649 6.84145 7.1403 6.84399C6.98368 6.84672 6.83264 6.84934 6.68717 6.85478C6.55076 6.85988 6.41926 6.8625 6.29146 6.86505C6.15576 6.86776 6.02425 6.87039 5.89551 6.8758C5.65592 6.88632 5.48926 6.88632 5.31217 6.88632C5.23926 6.88632 5.20801 6.92836 5.20801 7.00195ZM7.47884 12.4473V8.91518C7.55176 8.90466 7.69759 8.89415 7.90592 8.90466C8.10384 8.89415 8.34342 8.89415 8.61426 8.89415C9.04134 8.88364 9.45801 8.94671 9.84342 9.1044C10.1455 9.22003 10.3955 9.43028 10.5726 9.70359C10.7393 9.98742 10.8226 10.3133 10.8122 10.6392C10.8122 11.1017 10.708 11.4591 10.4893 11.7219C10.2601 11.9847 9.96842 12.1845 9.63509 12.2791C9.24967 12.4052 8.84342 12.4683 8.43717 12.4683H7.88509C7.76907 12.4683 7.64407 12.4593 7.51009 12.4495C7.49973 12.4488 7.48931 12.448 7.47884 12.4473Z" fill="#31A8FF"/>
<path id="Path_2" d="M19.583 11.8064C19.2705 11.6382 18.9372 11.5226 18.583 11.449C18.1976 11.3649 17.8122 11.3124 17.4164 11.3124C17.208 11.3018 16.9893 11.3334 16.7914 11.3859C16.6559 11.4175 16.5414 11.4911 16.4684 11.5962C16.4164 11.6803 16.3851 11.7854 16.3851 11.88C16.3851 11.9746 16.4268 12.0692 16.4893 12.1533C16.583 12.269 16.708 12.3636 16.8434 12.4372C17.083 12.5633 17.333 12.6789 17.583 12.7841C18.1455 12.9733 18.6872 13.2361 19.1872 13.5515C19.5309 13.7722 19.8122 14.0666 20.0101 14.424C20.1768 14.7604 20.2601 15.1283 20.2497 15.5067C20.2601 16.0008 20.1143 16.4949 19.8434 16.9049C19.5518 17.3254 19.1455 17.6512 18.6768 17.8405C18.1664 18.0612 17.5414 18.1768 16.7914 18.1768C16.3122 18.1768 15.8434 18.1348 15.3747 18.0402C15.0101 17.9771 14.6455 17.8615 14.3122 17.7038C14.2393 17.6617 14.1872 17.5882 14.1976 17.5041V15.6749C14.1976 15.6434 14.208 15.6013 14.2393 15.5803C14.2705 15.5593 14.3018 15.5698 14.333 15.5908C14.7393 15.8326 15.1664 16.0008 15.6247 16.1059C16.0205 16.2111 16.4372 16.2636 16.8539 16.2636C17.2497 16.2636 17.5309 16.2111 17.7184 16.1164C17.8851 16.0429 17.9997 15.8642 17.9997 15.6749C17.9997 15.5278 17.9164 15.3911 17.7497 15.2544C17.583 15.1178 17.2393 14.9601 16.7289 14.7604C16.1976 14.5711 15.708 14.3189 15.2497 14.0035C14.9268 13.7722 14.6559 13.4674 14.458 13.1099C14.2914 12.7736 14.208 12.4056 14.2184 12.0377C14.2184 11.5857 14.3434 11.1547 14.5726 10.7657C14.833 10.3452 15.2184 10.0088 15.6664 9.79859C16.1559 9.5463 16.7705 9.43066 17.5101 9.43066C17.9372 9.43066 18.3747 9.4622 18.8018 9.52527C19.1143 9.56732 19.4164 9.65142 19.6976 9.76706C19.7393 9.77757 19.7809 9.81962 19.8018 9.86167C19.8122 9.90371 19.8226 9.94576 19.8226 9.98781V11.7013C19.8226 11.7434 19.8018 11.7854 19.7705 11.8064C19.6768 11.8275 19.6247 11.8275 19.583 11.8064Z" fill="#31A8FF"/>
</g>
</g>
</g>
</svg>
