<svg width="137" height="48" viewBox="0 0 137 48" fill="none" xmlns="http://www.w3.org/2000/svg">
<g id="Company logo">
<path id="Vector" d="M15.0751 6H0V41L15.0751 6Z" fill="#9EA5AD"/>
<path id="Vector_2" d="M25.682 6H40.7375V41L25.682 6Z" fill="#9EA5AD"/>
<path id="Vector_3" d="M20.3787 18.8994L29.9737 40.9997H23.6785L20.8108 33.9634H13.7888L20.3787 18.8994Z" fill="#9EA5AD"/>
<path id="Vector_4" d="M65.331 28.2579L67.1086 33.2061C67.1676 33.3301 67.2559 33.3873 67.4131 33.3873H70.8308C71.0174 33.3873 71.0468 33.3015 71.0174 33.1203L63.9561 14.0806C63.9266 13.928 63.8972 13.8994 63.74 13.8994H59.4974C59.3796 13.8994 59.3108 13.9852 59.3108 14.1092C59.2519 15.1103 59.1635 15.4154 59.0358 15.7109L52.7406 33.0917C52.7111 33.3015 52.7799 33.3873 52.9567 33.3873H56.011C56.1976 33.3873 56.286 33.3301 56.3547 33.1489L58.0341 28.2579H65.331ZM59.0064 25.0258C59.9295 22.3181 61.1473 18.8477 61.6384 16.8645H61.6678C62.2767 18.943 63.7106 23.0618 64.3588 25.0258H59.0064Z" fill="#9EA5AD"/>
<path id="Vector_5" d="M80.0953 33.6823C81.9318 33.6823 83.8862 33.3582 85.87 32.5287C86.0271 32.4715 86.0566 32.4048 86.0566 32.2617C85.9977 31.7278 85.9289 30.9556 85.9289 30.3644V12.4402C85.9289 12.3258 85.9289 12.2686 85.7816 12.2686H82.4523C82.3247 12.2686 82.2657 12.3258 82.2657 12.4783V18.5516C81.7452 18.4944 81.3818 18.4658 80.9497 18.4658C75.5777 18.4658 72.2778 21.9076 72.2778 26.2075C72.2778 31.1939 75.6661 33.6823 80.0953 33.6823ZM82.2657 30.3644C81.7158 30.5361 81.1069 30.6028 80.4881 30.6028C78.0525 30.6028 76.0589 29.268 76.0589 26.0264C76.0589 23.1566 78.1115 21.4595 80.8319 21.4595C81.3818 21.4595 81.8631 21.5167 82.2657 21.6693V30.3644Z" fill="#9EA5AD"/>
<path id="Vector_6" d="M96.6775 18.4658C92.0912 18.4658 89.2529 21.8791 89.2529 26.0932C89.2529 29.8592 91.5117 33.6824 96.6088 33.6824C100.92 33.6824 103.945 30.6028 103.945 25.9978C103.945 21.9363 101.382 18.4658 96.6775 18.4658ZM96.491 21.4596C99.0837 21.4596 100.184 23.6238 100.184 26.0932C100.184 29.1441 98.5632 30.66 96.6775 30.66C94.35 30.66 92.9751 28.7627 92.9751 26.0264C92.9751 23.2138 94.4384 21.4596 96.491 21.4596Z" fill="#9EA5AD"/>
<path id="Vector_7" d="M107.387 12.2686C107.259 12.2686 107.171 12.3258 107.171 12.4783V32.7671C107.171 32.8529 107.259 33.0054 107.387 33.034C108.85 33.4726 110.382 33.6823 111.964 33.6823C116.491 33.6823 120.891 30.9556 120.891 25.4639C120.891 21.4881 118.082 18.4658 113.682 18.4658C112.671 18.4658 111.728 18.6183 110.903 18.8853L110.864 12.5069C110.864 12.2972 110.805 12.2686 110.589 12.2686H107.387ZM117.129 25.8262C117.129 29.1155 114.812 30.66 112.307 30.66C111.787 30.66 111.325 30.6314 110.903 30.5075V21.8504C111.384 21.6693 111.964 21.5167 113.034 21.5167C115.45 21.5167 117.129 23.004 117.129 25.8262Z" fill="#9EA5AD"/>
<path id="Vector_8" d="M133.316 26.894C134.808 26.894 136.036 26.8654 136.458 26.7701C136.615 26.7415 136.674 26.6843 136.704 26.5603C136.792 26.2362 136.832 25.5593 136.832 24.7298C136.832 21.9077 135.083 18.4658 130.566 18.4658C125.95 18.4658 123.387 22.1174 123.387 26.2362C123.387 29.8878 125.371 33.6824 130.929 33.6824C133.011 33.6824 134.357 33.3582 135.516 32.8243C135.633 32.7671 135.692 32.6718 135.692 32.5001V30.0308C135.692 29.8878 135.604 29.8592 135.516 29.9164C134.357 30.3931 133.1 30.6314 131.725 30.6314C128.611 30.6314 127.197 28.963 127.109 26.894H133.316ZM127.109 24.3389C127.354 22.8897 128.297 21.3165 130.409 21.3165C132.736 21.3165 133.345 23.2138 133.345 24.0719C133.345 24.1005 133.345 24.2245 133.345 24.3103C133.217 24.3389 132.825 24.3389 131.666 24.3389H127.109Z" fill="#9EA5AD"/>
</g>
</svg>
