<svg width="20" height="18" viewBox="0 0 20 18" fill="none" xmlns="http://www.w3.org/2000/svg">
<g id="Frame" clip-path="url(#clip0_42_536)">
<path id="Vector" d="M5.58911 8.83915C5.58911 8.01771 5.79149 7.31534 6.19626 6.73201C6.60103 6.14867 7.1546 5.70822 7.85697 5.41058C8.49984 5.13679 9.29147 4.94036 10.2319 4.82129C10.5534 4.78557 11.0772 4.73794 11.8034 4.67844V4.37489C11.8034 3.61298 11.72 3.10109 11.5534 2.83917C11.3034 2.48203 10.9105 2.30346 10.3748 2.30346H10.2319C9.83909 2.33918 9.49981 2.46417 9.21408 2.67846C8.92838 2.89275 8.74382 3.19035 8.66051 3.57131C8.61288 3.80941 8.49385 3.9463 8.30337 3.98203L6.24981 3.73201C6.04742 3.68439 5.94625 3.57726 5.94625 3.4106C5.94625 3.37488 5.9522 3.33324 5.96411 3.28561C6.16649 2.2261 6.66352 1.44038 7.4552 0.928451C8.24683 0.41652 9.1724 0.130825 10.2319 0.0712891H10.6784C12.0355 0.0712891 13.095 0.422474 13.8569 1.12484C13.9764 1.24445 14.0869 1.37277 14.1873 1.50875C14.2885 1.64565 14.3688 1.76768 14.4284 1.87484C14.4879 1.98197 14.5415 2.13676 14.5891 2.33914C14.6367 2.54153 14.6724 2.68142 14.6962 2.75878C14.72 2.83613 14.7379 3.00283 14.7498 3.25876C14.7617 3.51469 14.7677 3.66649 14.7677 3.71412V8.03553C14.7677 8.34504 14.8123 8.62782 14.9016 8.88375C14.9909 9.13967 15.0772 9.32424 15.1605 9.43732C15.2438 9.5504 15.3808 9.73196 15.5712 9.98197C15.6427 10.0891 15.6784 10.1844 15.6784 10.2677C15.6784 10.3629 15.6307 10.4462 15.5355 10.5177C14.5474 11.3748 14.0117 11.8391 13.9284 11.9106C13.7855 12.0177 13.6129 12.0296 13.4105 11.9463C13.2438 11.8034 13.098 11.6665 12.973 11.5356C12.848 11.4046 12.7587 11.3094 12.7051 11.2499C12.6516 11.1903 12.5653 11.0743 12.4462 10.9016C12.3271 10.729 12.2438 10.6129 12.1962 10.5534C11.5295 11.2796 10.8748 11.732 10.2319 11.9106C9.82714 12.0296 9.32716 12.0891 8.73191 12.0891C7.81525 12.0891 7.06226 11.8064 6.47297 11.2409C5.88368 10.6754 5.58911 9.87488 5.58911 8.83915ZM8.66055 8.48201C8.66055 8.94632 8.77662 9.31832 9.00877 9.5981C9.24092 9.87788 9.55343 10.0177 9.94629 10.0177C9.98201 10.0177 10.0326 10.0118 10.0981 9.99987C10.1635 9.98796 10.2082 9.98201 10.232 9.98201C10.732 9.85107 11.1189 9.52965 11.3927 9.01772C11.5237 8.79152 11.6219 8.54451 11.6874 8.27664C11.7528 8.00876 11.7886 7.79151 11.7945 7.62485C11.8005 7.45819 11.8034 7.18436 11.8034 6.80341V6.35697C11.1129 6.35697 10.5891 6.4046 10.232 6.49982C9.18435 6.79746 8.66055 7.45819 8.66055 8.48201Z" fill="#232F3F"/>
<path id="Vector_2" d="M0.214226 13.9279C0.273762 13.8327 0.368981 13.8267 0.499922 13.9101C3.4761 15.6363 6.7142 16.4994 10.2142 16.4994C12.5475 16.4994 14.8511 16.0648 17.1249 15.1958C17.1845 15.172 17.2707 15.1363 17.3839 15.0887C17.4969 15.041 17.5773 15.0053 17.6249 14.9815C17.8035 14.9101 17.9434 14.9458 18.0446 15.0887C18.1457 15.2315 18.113 15.3625 17.9463 15.4815C17.7321 15.6363 17.4582 15.8148 17.1249 16.0172C16.1011 16.6244 14.9582 17.0946 13.6963 17.428C12.4344 17.7613 11.2023 17.9279 9.99988 17.9279C8.14275 17.9279 6.38679 17.6035 4.73204 16.9547C3.07729 16.306 1.59511 15.3923 0.285593 14.2137C0.21415 14.1541 0.178467 14.0946 0.178467 14.0351C0.178467 13.9994 0.190412 13.9636 0.214226 13.9279ZM16.1607 14.2315C16.1845 14.1839 16.2202 14.1363 16.2678 14.0887C16.5654 13.8863 16.8511 13.7494 17.1249 13.678C17.5773 13.5589 18.0177 13.4934 18.4463 13.4815C18.5654 13.4696 18.6785 13.4756 18.7856 13.4994C19.3213 13.547 19.6427 13.6363 19.7499 13.7673C19.7975 13.8387 19.8213 13.9458 19.8213 14.0887V14.2137C19.8213 14.6304 19.7082 15.1214 19.4821 15.6869C19.2559 16.2524 18.9404 16.7077 18.5356 17.053C18.4761 17.1006 18.4225 17.1244 18.3749 17.1244C18.3511 17.1244 18.3273 17.1185 18.3035 17.1065C18.232 17.0708 18.2142 17.0053 18.2499 16.9101C18.6904 15.8744 18.9106 15.1542 18.9106 14.7494C18.9106 14.6184 18.8868 14.5232 18.8392 14.4637C18.7201 14.3208 18.3868 14.2494 17.8392 14.2494C17.6368 14.2494 17.3987 14.2613 17.1249 14.2851C16.8273 14.3208 16.5535 14.3566 16.3035 14.3922C16.232 14.3922 16.1844 14.3803 16.1606 14.3565C16.1368 14.3327 16.1308 14.3089 16.1428 14.2851C16.1428 14.2732 16.1487 14.2554 16.1607 14.2315Z" fill="#FF9900"/>
</g>
<defs>
<clipPath id="clip0_42_536">
<rect width="19.6428" height="17.8571" fill="white" transform="translate(0.178467 0.0712891)"/>
</clipPath>
</defs>
</svg>
