<svg width="28" height="28" viewBox="0 0 28 28" fill="none" xmlns="http://www.w3.org/2000/svg">
<g id="heroicons-mini/arrow-right">
<path id="Vector (Stroke)" fill-rule="evenodd" clip-rule="evenodd" d="M4.19995 14.0004C4.19995 13.4205 4.67005 12.9504 5.24995 12.9504L20.143 12.9504L14.3222 7.40726C13.9042 7.00533 13.8911 6.34063 14.2931 5.92262C14.695 5.50462 15.3597 5.49158 15.7777 5.89351L23.4777 13.2435C23.6836 13.4415 23.8 13.7148 23.8 14.0004C23.8 14.286 23.6836 14.5593 23.4777 14.7573L15.7777 22.1073C15.3597 22.5092 14.695 22.4962 14.2931 22.0782C13.8911 21.6601 13.9042 20.9954 14.3222 20.5935L20.143 15.0504L5.24995 15.0504C4.67005 15.0504 4.19995 14.5803 4.19995 14.0004Z" fill="white"/>
</g>
</svg>
