<svg xmlns="http://www.w3.org/2000/svg" width="18" height="18" viewBox="0 0 18 18" fill="none">
  <path d="M4.7248 10.8008C4.7248 10.428 5.02701 10.1258 5.3998 10.1258H5.40881C5.7816 10.1258 6.08381 10.428 6.08381 10.8008V10.8098C6.08381 11.1826 5.7816 11.4848 5.40881 11.4848H5.3998C5.02701 11.4848 4.7248 11.1826 4.7248 10.8098V10.8008Z" fill="black"/>
  <path d="M5.3998 11.9258C5.02701 11.9258 4.7248 12.228 4.7248 12.6008V12.6098C4.7248 12.9826 5.02701 13.2848 5.3998 13.2848H5.40881C5.7816 13.2848 6.08381 12.9826 6.08381 12.6098V12.6008C6.08381 12.228 5.7816 11.9258 5.40881 11.9258H5.3998Z" fill="black"/>
  <path d="M6.52481 10.8008C6.52481 10.428 6.82701 10.1258 7.1998 10.1258H7.20881C7.5816 10.1258 7.88381 10.428 7.88381 10.8008V10.8098C7.88381 11.1826 7.5816 11.4848 7.20881 11.4848H7.1998C6.82701 11.4848 6.52481 11.1826 6.52481 10.8098V10.8008Z" fill="black"/>
  <path d="M7.1998 11.9258C6.82701 11.9258 6.52481 12.228 6.52481 12.6008V12.6098C6.52481 12.9826 6.82701 13.2848 7.1998 13.2848H7.20881C7.5816 13.2848 7.88381 12.9826 7.88381 12.6098V12.6008C7.88381 12.228 7.5816 11.9258 7.20881 11.9258H7.1998Z" fill="black"/>
  <path d="M8.3248 9.00078C8.3248 8.62799 8.62701 8.32578 8.9998 8.32578H9.00881C9.3816 8.32578 9.6838 8.62799 9.6838 9.00078V9.00978C9.6838 9.38257 9.3816 9.68478 9.00881 9.68478H8.9998C8.62701 9.68478 8.3248 9.38257 8.3248 9.00978V9.00078Z" fill="black"/>
  <path d="M8.9998 10.1258C8.62701 10.1258 8.3248 10.428 8.3248 10.8008V10.8098C8.3248 11.1826 8.62701 11.4848 8.9998 11.4848H9.00881C9.3816 11.4848 9.6838 11.1826 9.6838 10.8098V10.8008C9.6838 10.428 9.3816 10.1258 9.00881 10.1258H8.9998Z" fill="black"/>
  <path d="M8.3248 12.6008C8.3248 12.228 8.62701 11.9258 8.9998 11.9258H9.00881C9.3816 11.9258 9.6838 12.228 9.6838 12.6008V12.6098C9.6838 12.9826 9.3816 13.2848 9.00881 13.2848H8.9998C8.62701 13.2848 8.3248 12.9826 8.3248 12.6098V12.6008Z" fill="black"/>
  <path d="M10.7998 8.32578C10.427 8.32578 10.1248 8.62799 10.1248 9.00078V9.00978C10.1248 9.38257 10.427 9.68478 10.7998 9.68478H10.8088C11.1816 9.68478 11.4838 9.38257 11.4838 9.00978V9.00078C11.4838 8.62799 11.1816 8.32578 10.8088 8.32578H10.7998Z" fill="black"/>
  <path d="M10.1248 10.8008C10.1248 10.428 10.427 10.1258 10.7998 10.1258H10.8088C11.1816 10.1258 11.4838 10.428 11.4838 10.8008V10.8098C11.4838 11.1826 11.1816 11.4848 10.8088 11.4848H10.7998C10.427 11.4848 10.1248 11.1826 10.1248 10.8098V10.8008Z" fill="black"/>
  <path d="M10.7998 11.9258C10.427 11.9258 10.1248 12.228 10.1248 12.6008V12.6098C10.1248 12.9826 10.427 13.2848 10.7998 13.2848H10.8088C11.1816 13.2848 11.4838 12.9826 11.4838 12.6098V12.6008C11.4838 12.228 11.1816 11.9258 10.8088 11.9258H10.7998Z" fill="black"/>
  <path d="M11.9248 9.00078C11.9248 8.62799 12.227 8.32578 12.5998 8.32578H12.6088C12.9816 8.32578 13.2838 8.62799 13.2838 9.00078V9.00978C13.2838 9.38257 12.9816 9.68478 12.6088 9.68478H12.5998C12.227 9.68478 11.9248 9.38257 11.9248 9.00978V9.00078Z" fill="black"/>
  <path d="M12.5998 10.1258C12.227 10.1258 11.9248 10.428 11.9248 10.8008V10.8098C11.9248 11.1826 12.227 11.4848 12.5998 11.4848H12.6088C12.9816 11.4848 13.2838 11.1826 13.2838 10.8098V10.8008C13.2838 10.428 12.9816 10.1258 12.6088 10.1258H12.5998Z" fill="black"/>
  <path fill-rule="evenodd" clip-rule="evenodd" d="M5.1748 1.80078C5.5476 1.80078 5.8498 2.10299 5.8498 2.47578V3.60078H12.1498V2.47578C12.1498 2.10299 12.452 1.80078 12.8248 1.80078C13.1976 1.80078 13.4998 2.10299 13.4998 2.47578V3.60078H13.7248C15.0917 3.60078 16.1998 4.70888 16.1998 6.07578V13.7258C16.1998 15.0927 15.0917 16.2008 13.7248 16.2008H4.27481C2.9079 16.2008 1.7998 15.0927 1.7998 13.7258V6.07578C1.7998 4.70888 2.9079 3.60078 4.2748 3.60078H4.4998V2.47578C4.4998 2.10299 4.80201 1.80078 5.1748 1.80078ZM4.2748 6.75078C3.65348 6.75078 3.1498 7.25446 3.1498 7.87578V13.7258C3.1498 14.3471 3.65348 14.8508 4.27481 14.8508H13.7248C14.3461 14.8508 14.8498 14.3471 14.8498 13.7258V7.87578C14.8498 7.25446 14.3461 6.75078 13.7248 6.75078H4.2748Z" fill="black"/>
</svg>