<svg xmlns="http://www.w3.org/2000/svg" width="35" height="35" viewBox="0 0 35 35" fill="none">
  <path d="M31.7188 9.84375V25.1562C31.7188 26.9684 30.2497 28.4375 28.4375 28.4375H6.5625C4.75032 28.4375 3.28125 26.9684 3.28125 25.1562V9.84375M31.7188 9.84375C31.7188 8.03157 30.2497 6.5625 28.4375 6.5625H6.5625C4.75032 6.5625 3.28125 8.03157 3.28125 9.84375M31.7188 9.84375V10.1977C31.7188 11.3372 31.1276 12.395 30.1572 12.9922L19.2197 19.723C18.1651 20.372 16.8349 20.372 15.7803 19.723L4.84281 12.9922C3.87238 12.395 3.28125 11.3372 3.28125 10.1977V9.84375" stroke="black" stroke-width="1.5" stroke-linecap="round" stroke-linejoin="round"/>
</svg>