<svg width="24" height="24" viewBox="0 0 24 24" fill="none" xmlns="http://www.w3.org/2000/svg">
<g id="drib">
<path id="Path" fill-rule="evenodd" clip-rule="evenodd" d="M24 11.9834C24 12.7949 23.9174 13.6053 23.7551 14.3953C23.5969 15.1665 23.3625 15.9236 23.0555 16.6474C22.7555 17.3584 22.3834 18.0435 21.9486 18.6824C21.5203 19.3173 21.0268 19.913 20.4848 20.456C19.9416 20.9966 19.3439 21.4886 18.7093 21.9188C18.0683 22.3506 17.3822 22.7221 16.6708 23.0235C15.946 23.3289 15.1871 23.563 14.4165 23.7209C13.6255 23.8836 12.8122 23.9667 11.9995 23.9667C11.1861 23.9667 10.3728 23.8836 9.58294 23.7209C8.81124 23.563 8.0524 23.3289 7.32814 23.0235C6.61679 22.7221 5.93 22.3506 5.28897 21.9188C4.65437 21.4887 4.05668 20.9966 3.51466 20.456C2.97207 19.913 2.47866 19.3173 2.04974 18.6824C1.61729 18.0435 1.24459 17.3583 0.943424 16.6474C0.636339 15.9236 0.401399 15.1664 0.242596 14.3953C0.0820552 13.6053 0 12.7949 0 11.9834C0 11.1712 0.0820082 10.3591 0.242643 9.57085C0.401446 8.79965 0.636386 8.04134 0.943471 7.31873C1.24464 6.60724 1.61734 5.92149 2.04978 5.28251C2.47871 4.64709 2.97212 4.05257 3.51471 3.50898C4.05673 2.9683 4.65441 2.47743 5.28902 2.04795C5.93005 1.61435 6.61683 1.24284 7.32818 0.94089C8.05245 0.634811 8.81124 0.40021 9.58299 0.243418C10.3729 0.0819368 11.1862 0 11.9995 0C12.8122 0 13.6255 0.0819368 14.4166 0.243418C15.1871 0.400257 15.946 0.634858 16.6708 0.94089C17.3822 1.24279 18.0684 1.61435 18.7094 2.04795C19.344 2.47743 19.9417 2.9683 20.4849 3.50898C21.0269 4.05257 21.5203 4.64709 21.9486 5.28251C22.3834 5.92149 22.7555 6.60729 23.0555 7.31873C23.3625 8.04134 23.5969 8.79965 23.7551 9.57085C23.9174 10.3591 24 11.1712 24 11.9834ZM7.62693 2.72735C4.76913 4.07492 2.63622 6.70445 1.97113 9.87349L1.98098 9.87358C2.33121 9.87681 6.56359 9.91594 11.4322 8.62422C9.65849 5.47742 7.76347 2.90937 7.62693 2.72735ZM1.75962 11.6568C1.94125 11.6638 7.00463 11.7773 12.2812 10.1999C12.5748 10.7745 12.8555 11.3573 13.1127 11.9389C12.978 11.9775 12.842 12.0173 12.7084 12.0617C7.17809 13.8475 4.3736 18.8158 4.37712 18.8211C2.74462 17.0089 1.7514 14.6122 1.7514 11.9833C1.7514 11.9074 1.75391 11.8332 1.75643 11.7584C1.75757 11.7247 1.75871 11.691 1.75962 11.6568ZM18.7674 4.30322C16.9631 2.71458 14.5941 1.75094 11.9994 1.75094C11.1668 1.75094 10.3587 1.85159 9.58465 2.03765L9.60131 2.05994C9.84395 2.38447 11.7113 4.882 13.4157 8.00703C17.2509 6.57132 18.7181 4.37695 18.7665 4.30458L18.7674 4.30322ZM13.7865 13.6425L13.8114 13.6345C15.2534 17.3769 15.8488 20.5109 16.0005 21.4049C14.7706 21.9274 13.4188 22.2159 11.9996 22.2159C9.6229 22.2159 7.44076 21.4008 5.70098 20.0498C5.72235 20.0035 7.69692 15.7616 13.7434 13.6567C13.7576 13.6515 13.772 13.647 13.7865 13.6425ZM17.7262 20.4701C20.0273 18.9196 21.6615 16.4574 22.1174 13.6054C21.9065 13.5375 19.0393 12.6312 15.7315 13.1607C17.0757 16.8494 17.6219 19.8534 17.7262 20.4701ZM14.8853 11.0155C14.6726 10.5164 14.4423 10.0197 14.2044 9.53168C18.2247 7.89212 19.8731 5.54031 19.9129 5.48344L19.9135 5.48263C21.3514 7.22567 22.2205 9.45208 22.2439 11.878C22.2411 11.8774 22.237 11.8765 22.2318 11.8755C21.9628 11.8195 18.5599 11.1118 15.1068 11.5457C15.0347 11.3702 14.9609 11.1946 14.8853 11.0155Z" fill="#F26798"/>
</g>
</svg>
