<svg width="26" height="26" viewBox="0 0 26 26" fill="none" xmlns="http://www.w3.org/2000/svg">
<g id="Group">
<path id="Vector" d="M12.9999 24.677C19.4489 24.677 24.6768 19.4491 24.6768 13.0001C24.6768 6.55117 19.4489 1.32324 12.9999 1.32324C6.55092 1.32324 1.323 6.55117 1.323 13.0001C1.323 19.4491 6.55092 24.677 12.9999 24.677Z" fill="#EA4C89"/>
<path id="Vector_2" fill-rule="evenodd" clip-rule="evenodd" d="M12.9999 0.946289C6.34556 0.946289 0.946289 6.34556 0.946289 12.9999C0.946289 19.6542 6.34556 25.0534 12.9999 25.0534C19.6411 25.0534 25.0534 19.6542 25.0534 12.9999C25.0534 6.34556 19.6411 0.946289 12.9999 0.946289ZM20.9615 6.50244C22.3995 8.25426 23.2624 10.4898 23.2886 12.9083C22.9487 12.843 19.5495 12.1501 16.1244 12.5815C16.0459 12.4116 15.9806 12.2285 15.9021 12.0455C15.6929 11.5488 15.4577 11.0389 15.2223 10.5552C19.0135 9.01254 20.7392 6.79005 20.9615 6.50244ZM12.9999 2.72426C15.6145 2.72426 18.0069 3.70476 19.8241 5.31277C19.6411 5.57424 18.0853 7.65289 14.4248 9.02557C12.7384 5.92721 10.8689 3.39099 10.5813 2.99879C11.3526 2.81577 12.1632 2.72426 12.9999 2.72426ZM8.62035 3.69168C8.89487 4.05773 10.7251 6.60702 12.4377 9.64C7.62674 10.9212 3.37792 10.8951 2.92036 10.8951C3.58709 7.70518 5.74418 5.0513 8.62035 3.69168ZM2.69811 13.013C2.69811 12.9083 2.69811 12.8038 2.69811 12.6992C3.1426 12.7122 8.1366 12.7776 13.2744 11.235C13.5751 11.8102 13.8496 12.3985 14.1111 12.9868C13.9803 13.026 13.8365 13.0653 13.7058 13.1044C8.39806 14.817 5.57424 19.4973 5.33891 19.8895C3.70475 18.0723 2.69811 15.6538 2.69811 13.013ZM12.9999 23.3016C10.6205 23.3016 8.42421 22.4911 6.68546 21.1314C6.86849 20.7523 8.96018 16.7258 14.7647 14.6994C14.7909 14.6863 14.804 14.6863 14.8301 14.6733C16.2812 18.4252 16.8696 21.5759 17.0264 22.478C15.7845 23.014 14.4248 23.3016 12.9999 23.3016ZM18.739 21.5367C18.6345 20.9092 18.0853 17.9023 16.7388 14.2026C19.968 13.6927 22.7917 14.5295 23.1447 14.6471C22.7003 17.5102 21.053 19.981 18.739 21.5367Z" fill="#C32361"/>
</g>
</svg>
