<svg width="26" height="26" viewBox="0 0 26 26" fill="none" xmlns="http://www.w3.org/2000/svg">
<g id="drib">
<path id="Path" fill-rule="evenodd" clip-rule="evenodd" d="M26 13C26 13.8804 25.9105 14.7596 25.7347 15.6166C25.5633 16.4532 25.3094 17.2745 24.9767 18.0597C24.6517 18.831 24.2486 19.5743 23.7776 20.2674C23.3136 20.9562 22.7791 21.6024 22.1919 22.1914C21.6034 22.7779 20.9559 23.3117 20.2685 23.7784C19.574 24.2468 18.8307 24.6498 18.06 24.9768C17.2748 25.3081 16.4527 25.562 15.6179 25.7334C14.761 25.9099 13.8798 26 12.9994 26C12.1183 26 11.2372 25.9099 10.3815 25.7334C9.54551 25.562 8.72344 25.3081 7.93881 24.9768C7.16819 24.6498 6.42417 24.2468 5.72972 23.7784C5.04223 23.3118 4.39474 22.7779 3.80755 22.1914C3.21974 21.6024 2.68521 20.9562 2.22055 20.2674C1.75207 19.5743 1.34831 18.831 1.02204 18.0597C0.689367 17.2745 0.434849 16.4531 0.262812 15.6166C0.0888932 14.7596 0 13.8804 0 13C0 12.119 0.0888423 11.2379 0.262863 10.3828C0.4349 9.5462 0.689418 8.72357 1.02209 7.93965C1.34836 7.16779 1.75212 6.42387 2.2206 5.73067C2.68527 5.04134 3.21979 4.39638 3.8076 3.80668C4.39479 3.22013 5.04228 2.68761 5.72977 2.2217C6.42422 1.75131 7.16824 1.34828 7.93887 1.02071C8.72349 0.688668 9.54551 0.434164 10.3816 0.26407C11.2373 0.0888883 12.1184 0 12.9995 0C13.8799 0 14.761 0.0888883 15.618 0.26407C16.4527 0.434214 17.2748 0.688719 18.0601 1.02071C18.8307 1.34823 19.574 1.75131 20.2685 2.2217C20.956 2.68761 21.6035 3.22013 22.1919 3.80668C22.7791 4.39638 23.3137 5.04134 23.7777 5.73067C24.2486 6.42387 24.6517 7.16784 24.9767 7.93965C25.3094 8.72357 25.5633 9.5462 25.7347 10.3828C25.9105 11.2379 26 12.119 26 13ZM8.26251 2.95874C5.16656 4.42064 2.8559 7.27325 2.13539 10.7111L2.14606 10.7112C2.52545 10.7148 7.11054 10.7572 12.3849 9.35589C10.4634 5.94212 8.41043 3.1562 8.26251 2.95874ZM1.90626 12.6458C2.10303 12.6534 7.58835 12.7765 13.3047 11.0652C13.6227 11.6886 13.9268 12.3208 14.2055 12.9517C14.0595 12.9936 13.9122 13.0368 13.7675 13.085C7.77626 15.0223 4.73807 20.4121 4.74189 20.4178C2.97333 18.4519 1.89736 15.8519 1.89736 13C1.89736 12.9176 1.90007 12.8371 1.9028 12.756C1.90403 12.7195 1.90527 12.6828 1.90626 12.6458ZM20.3313 4.66831C18.3767 2.94488 15.8103 1.89949 12.9994 1.89949C12.0973 1.89949 11.2219 2.00868 10.3834 2.21052L10.4014 2.23472C10.6643 2.58681 12.6873 5.29621 14.5337 8.68634C18.6884 7.12883 20.2779 4.74829 20.3303 4.66978L20.3313 4.66831ZM14.9354 14.7999L14.9623 14.7912C16.5246 18.8512 17.1695 22.251 17.3339 23.2209C16.0015 23.7877 14.537 24.1007 12.9996 24.1007C10.4248 24.1007 8.06082 23.2164 6.17607 21.7508C6.19921 21.7006 8.33832 17.0988 14.8887 14.8153C14.9041 14.8097 14.9197 14.8048 14.9353 14.7999L14.9354 14.7999ZM19.2034 22.2068C21.6962 20.5247 23.4666 17.8536 23.9605 14.7597C23.732 14.6861 20.6259 13.7028 17.0425 14.2773C18.4987 18.2789 19.0904 21.5378 19.2034 22.2068ZM16.1257 11.9501C15.8953 11.4086 15.6458 10.8697 15.3881 10.3403C19.7434 8.56171 21.5291 6.01042 21.5724 5.94865L21.573 5.94777C23.1307 7.83869 24.0722 10.254 24.0976 12.8857C24.0945 12.8851 24.0901 12.8841 24.0844 12.883C23.793 12.8223 20.1065 12.0545 16.3657 12.5252C16.2876 12.3348 16.2076 12.1444 16.1257 11.9501Z" fill="#CED2D6"/>
</g>
</svg>
