<svg xmlns="http://www.w3.org/2000/svg" width="34" height="34" viewBox="0 0 34 34" fill="none">
  <path d="M9.5625 17C9.5625 17.5868 9.0868 18.0625 8.5 18.0625C7.9132 18.0625 7.4375 17.5868 7.4375 17C7.4375 16.4132 7.9132 15.9375 8.5 15.9375C9.0868 15.9375 9.5625 16.4132 9.5625 17Z" stroke="black" stroke-width="1.5" stroke-linecap="round" stroke-linejoin="round"/>
  <path d="M18.0625 17C18.0625 17.5868 17.5868 18.0625 17 18.0625C16.4132 18.0625 15.9375 17.5868 15.9375 17C15.9375 16.4132 16.4132 15.9375 17 15.9375C17.5868 15.9375 18.0625 16.4132 18.0625 17Z" stroke="black" stroke-width="1.5" stroke-linecap="round" stroke-linejoin="round"/>
  <path d="M26.5625 17C26.5625 17.5868 26.0868 18.0625 25.5 18.0625C24.9132 18.0625 24.4375 17.5868 24.4375 17C24.4375 16.4132 24.9132 15.9375 25.5 15.9375C26.0868 15.9375 26.5625 16.4132 26.5625 17Z" stroke="black" stroke-width="1.5" stroke-linecap="round" stroke-linejoin="round"/>
</svg>