<svg xmlns="http://www.w3.org/2000/svg" width="35" height="35" viewBox="0 0 35 35" fill="none">
  <path d="M5.46875 8.75C5.46875 6.93782 6.93782 5.46875 8.75 5.46875H12.0312C13.8434 5.46875 15.3125 6.93782 15.3125 8.75V12.0312C15.3125 13.8434 13.8434 15.3125 12.0312 15.3125H8.75C6.93782 15.3125 5.46875 13.8434 5.46875 12.0312V8.75Z" stroke="black" stroke-width="1.5" stroke-linecap="round" stroke-linejoin="round"/>
  <path d="M5.46875 22.9688C5.46875 21.1566 6.93782 19.6875 8.75 19.6875H12.0312C13.8434 19.6875 15.3125 21.1566 15.3125 22.9688V26.25C15.3125 28.0622 13.8434 29.5312 12.0312 29.5312H8.75C6.93782 29.5312 5.46875 28.0622 5.46875 26.25V22.9688Z" stroke="black" stroke-width="1.5" stroke-linecap="round" stroke-linejoin="round"/>
  <path d="M19.6875 8.75C19.6875 6.93782 21.1566 5.46875 22.9688 5.46875H26.25C28.0622 5.46875 29.5312 6.93782 29.5312 8.75V12.0312C29.5312 13.8434 28.0622 15.3125 26.25 15.3125H22.9688C21.1566 15.3125 19.6875 13.8434 19.6875 12.0312V8.75Z" stroke="black" stroke-width="1.5" stroke-linecap="round" stroke-linejoin="round"/>
  <path d="M19.6875 22.9688C19.6875 21.1566 21.1566 19.6875 22.9688 19.6875H26.25C28.0622 19.6875 29.5312 21.1566 29.5312 22.9688V26.25C29.5312 28.0622 28.0622 29.5312 26.25 29.5312H22.9688C21.1566 29.5312 19.6875 28.0622 19.6875 26.25V22.9688Z" stroke="black" stroke-width="1.5" stroke-linecap="round" stroke-linejoin="round"/>
</svg>