<svg width="25" height="25" viewBox="0 0 25 25" fill="none" xmlns="http://www.w3.org/2000/svg">
<g id="Figma">
<g id="Color">
<g id="Taobao">
<g id="back">
<g id="path0_fill-link">
<path id="path0_fill" d="M0 12.5C0 5.59646 5.59646 0 12.5 0C19.4035 0 25 5.59646 25 12.5C25 19.4035 19.4035 25 12.5 25C5.59646 25 0 19.4035 0 12.5Z" fill="#333333"/>
</g>
</g>
</g>
</g>
<g id="Group">
<g id="5">
<g id="path1_fill-link">
<path id="path1_fill" d="M10 20C11.3807 20 12.5 18.8807 12.5 17.5V15H10C8.61929 15 7.5 16.1193 7.5 17.5C7.5 18.8807 8.61929 20 10 20Z" fill="#0ACF83"/>
</g>
</g>
<g id="4">
<g id="path2_fill-link">
<path id="path2_fill" d="M7.5 12.5C7.5 11.1193 8.61929 10 10 10H12.5V15H10C8.61929 15 7.5 13.8807 7.5 12.5Z" fill="#A259FF"/>
</g>
</g>
<g id="3">
<g id="path2_fill-link_2">
<path id="path2_fill_2" d="M7.5 7.5C7.5 6.11929 8.61929 5 10 5H12.5V10H10C8.61929 10 7.5 8.88071 7.5 7.5Z" fill="#F24E1E"/>
</g>
</g>
<g id="2">
<g id="path3_fill-link">
<path id="path3_fill" d="M12.5 5H15C16.3807 5 17.5 6.11929 17.5 7.5C17.5 8.88071 16.3807 10 15 10H12.5V5Z" fill="#FF7262"/>
</g>
</g>
<g id="1">
<g id="path4_fill-link">
<path id="path4_fill" d="M17.5 12.5C17.5 13.8807 16.3807 15 15 15C13.6193 15 12.5 13.8807 12.5 12.5C12.5 11.1193 13.6193 10 15 10C16.3807 10 17.5 11.1193 17.5 12.5Z" fill="#1ABCFE"/>
</g>
</g>
</g>
</g>
</svg>
