<svg xmlns="http://www.w3.org/2000/svg" width="22" height="22" viewBox="0 0 22 22" fill="none">
  <path fill-rule="evenodd" clip-rule="evenodd" d="M14.8496 5.43153C18.5325 7.55783 19.7943 12.2671 17.668 15.9499C15.5417 19.6328 10.8325 20.8946 7.14963 18.7683C3.46677 16.642 2.20493 11.9328 4.33123 8.24993C4.51647 7.92909 4.72131 7.62662 4.94336 7.34317C5.16514 7.06008 5.59304 7.10289 5.8158 7.3852C6.12131 7.77237 6.46926 8.12449 6.85263 8.43455C7.21854 8.73048 7.71807 8.38152 7.70329 7.91116C7.70109 7.84108 7.69998 7.77073 7.69998 7.70011C7.69998 6.68972 7.92703 5.73235 8.33288 4.87625C8.91935 3.63918 9.87917 2.61356 11.0668 1.94493C11.3385 1.79197 11.6723 1.92757 11.8115 2.20658C12.4626 3.51212 13.4915 4.64743 14.8496 5.43153ZM15.4 13.2001C15.4 15.6302 13.43 17.6001 11 17.6001C8.89536 17.6001 7.12696 16.0619 6.69913 14.1003C6.59621 13.6284 7.18258 13.3925 7.5943 13.6451C8.12893 13.9729 8.73099 14.1862 9.35586 14.2655C9.68876 14.3077 9.93965 14.002 9.91625 13.6672C9.90546 13.5129 9.89998 13.3572 9.89998 13.2001C9.89998 11.6306 10.4479 10.1889 11.3629 9.05611C11.4771 8.91473 11.6588 8.84533 11.8373 8.87971C13.8669 9.27073 15.4 11.0564 15.4 13.2001Z" fill="#8C54FD"/>
</svg>