<svg xmlns="http://www.w3.org/2000/svg" width="34" height="34" viewBox="0 0 34 34" fill="none">
  <path d="M31.0639 17.3125C31.0639 16.1562 30.9681 15.3125 30.761 14.4375H17.2884V19.6562H25.1965C25.0371 20.9531 24.1761 22.9062 22.2628 24.2187L22.236 24.3934L26.4958 27.6274L26.7909 27.6562C29.5013 25.2031 31.0639 21.5937 31.0639 17.3125Z" fill="#4285F4"/>
  <path d="M17.2875 31.0626C21.1618 31.0626 24.4143 29.8125 26.79 27.6563L22.262 24.2187C21.0503 25.0469 19.4239 25.625 17.2875 25.625C13.4929 25.625 10.2723 23.1719 9.12423 19.7812L8.95595 19.7953L4.52658 23.1547L4.46866 23.3125C6.82832 27.9062 11.6753 31.0626 17.2875 31.0626Z" fill="#34A853"/>
  <path d="M9.12506 19.7814C8.82213 18.9064 8.64682 17.9688 8.64682 17.0001C8.64682 16.0313 8.82213 15.0938 9.10912 14.2188L9.1011 14.0325L4.61621 10.6191L4.46948 10.6875C3.49695 12.5938 2.9389 14.7345 2.9389 17.0001C2.9389 19.2657 3.49695 21.4063 4.46948 23.3125L9.12506 19.7814Z" fill="#FBBC05"/>
  <path d="M17.2876 8.37496C19.9821 8.37496 21.7996 9.51558 22.836 10.4688L26.8858 6.59375C24.3986 4.32813 21.1619 2.9375 17.2876 2.9375C11.6753 2.9375 6.82833 6.09372 4.46866 10.6874L9.10832 14.2187C10.2723 10.8281 13.493 8.37496 17.2876 8.37496Z" fill="#EB4335"/>
</svg>