<svg width="116" height="48" viewBox="0 0 116 48" fill="none" xmlns="http://www.w3.org/2000/svg">
<g id="Company logo">
<path id="Vector" d="M49.5183 25.6501C49.5183 30.9734 45.2433 34.896 39.997 34.896C34.7507 34.896 30.4758 30.9734 30.4758 25.6501C30.4758 20.2894 34.7507 16.4043 39.997 16.4043C45.2433 16.4043 49.5183 20.2894 49.5183 25.6501ZM45.3503 25.6501C45.3503 22.3236 42.8726 20.0476 39.997 20.0476C37.1214 20.0476 34.6437 22.3236 34.6437 25.6501C34.6437 28.9433 37.1214 31.2527 39.997 31.2527C42.8726 31.2527 45.3503 28.9391 45.3503 25.6501Z" fill="#9EA5AD"/>
<path id="Vector_2" d="M70.0587 25.6501C70.0587 30.9734 65.7837 34.896 60.5374 34.896C55.2911 34.896 51.0162 30.9734 51.0162 25.6501C51.0162 20.2936 55.2911 16.4043 60.5374 16.4043C65.7837 16.4043 70.0587 20.2894 70.0587 25.6501ZM65.8907 25.6501C65.8907 22.3236 63.4131 20.0476 60.5374 20.0476C57.6618 20.0476 55.1841 22.3236 55.1841 25.6501C55.1841 28.9433 57.6618 31.2527 60.5374 31.2527C63.4131 31.2527 65.8907 28.9391 65.8907 25.6501Z" fill="#9EA5AD"/>
<path id="Vector_3" d="M89.7434 16.9629V33.562C89.7434 40.3901 85.6096 43.1789 80.7228 43.1789C76.1226 43.1789 73.354 40.1817 72.3098 37.7306L75.9386 36.2591C76.5848 37.7639 78.1681 39.5397 80.7185 39.5397C83.8466 39.5397 85.7851 37.6597 85.7851 34.1206V32.7909H85.6396C84.7067 33.9122 82.9094 34.8918 80.6415 34.8918C75.8958 34.8918 71.5481 30.865 71.5481 25.6835C71.5481 20.4645 75.8958 16.4043 80.6415 16.4043C82.9052 16.4043 84.7024 17.3839 85.6396 18.4719H85.7851V16.9671H89.7434V16.9629ZM86.0804 25.6835C86.0804 22.4278 83.8509 20.0476 81.0138 20.0476C78.1381 20.0476 75.7289 22.4278 75.7289 25.6835C75.7289 28.9058 78.1381 31.2527 81.0138 31.2527C83.8509 31.2527 86.0804 28.9058 86.0804 25.6835Z" fill="#9EA5AD"/>
<path id="Vector_4" d="M96.2687 7.2334V34.329H92.2034V7.2334H96.2687Z" fill="#9EA5AD"/>
<path id="Vector_5" d="M112.111 28.6934L115.346 30.7944C114.302 32.2992 111.786 34.8921 107.438 34.8921C102.046 34.8921 98.0193 30.8319 98.0193 25.6462C98.0193 20.1479 102.08 16.4004 106.971 16.4004C111.897 16.4004 114.306 20.2188 115.093 22.2822L115.526 23.3327L102.838 28.4517C103.809 30.3067 105.32 31.2529 107.438 31.2529C109.56 31.2529 111.032 30.2358 112.111 28.6934ZM102.153 25.3669L110.634 21.9362C110.168 20.7815 108.764 19.977 107.113 19.977C104.994 19.977 102.046 21.7987 102.153 25.3669Z" fill="#9EA5AD"/>
<path id="Vector_6" d="M15.0877 23.2447V19.3221H28.6571C28.7897 20.0058 28.8582 20.8145 28.8582 21.6899C28.8582 24.6329 28.0323 28.272 25.3706 30.8648C22.7817 33.491 19.4739 34.8917 15.0919 34.8917C6.96998 34.8917 0.14035 28.4471 0.14035 20.5352C0.14035 12.6233 6.96998 6.17871 15.0919 6.17871C19.5851 6.17871 22.786 7.89615 25.1909 10.1347L22.3495 12.9026C20.625 11.3269 18.2885 10.1013 15.0877 10.1013C9.15666 10.1013 4.51799 14.7576 4.51799 20.5352C4.51799 26.3128 9.15666 30.9691 15.0877 30.9691C18.9347 30.9691 21.1256 29.4642 22.5292 28.0969C23.6675 26.9881 24.4163 25.4041 24.7116 23.2406L15.0877 23.2447Z" fill="#9EA5AD"/>
</g>
</svg>
