<svg width="58" height="58" viewBox="0 0 58 58" fill="none" xmlns="http://www.w3.org/2000/svg">
<g id="google">
<path id="vector" d="M54.3144 29.5617C54.3144 27.4804 54.1421 25.9617 53.7692 24.3867H29.5186V33.7804H43.7531C43.4662 36.1148 41.9165 39.6304 38.4726 41.9928L38.4243 42.3073L46.0919 48.1285L46.6231 48.1805C51.5018 43.7648 54.3144 37.2679 54.3144 29.5617Z" fill="#4285F4"/>
<path id="vector_2" d="M29.5173 54.3123C36.491 54.3123 42.3455 52.0622 46.6218 48.181L38.4713 41.9933C36.2902 43.4839 33.3629 44.5246 29.5173 44.5246C22.687 44.5246 16.8899 40.109 14.8234 34.0059L14.5205 34.0311L6.54762 40.078L6.44336 40.3621C10.6907 48.6308 19.4152 54.3123 29.5173 54.3123Z" fill="#34A853"/>
<path id="vector_3" d="M14.8245 34.0057C14.2793 32.4307 13.9637 30.7431 13.9637 28.9994C13.9637 27.2555 14.2793 25.5681 14.7958 23.9931L14.7814 23.6577L6.70861 17.5137L6.44449 17.6368C4.69393 21.0681 3.68945 24.9213 3.68945 28.9994C3.68945 33.0775 4.69393 36.9305 6.44449 40.3618L14.8245 34.0057Z" fill="#FBBC05"/>
<path id="vector_4" d="M29.5174 13.4749C34.3675 13.4749 37.6391 15.528 39.5046 17.2438L46.7942 10.2687C42.3173 6.19063 36.4912 3.6875 29.5174 3.6875C19.4153 3.6875 10.6908 9.3687 6.44336 17.6374L14.7947 23.9937C16.89 17.8906 22.6871 13.4749 29.5174 13.4749Z" fill="#EB4335"/>
</g>
</svg>
