<svg width="43" height="44" viewBox="0 0 43 44" fill="none" xmlns="http://www.w3.org/2000/svg">
<g id="Group 46">
<path id="Vector" d="M3.4707 19.6C5.38751 19.6 6.94139 17.9713 6.94139 15.9621C6.94139 13.953 5.38751 12.3242 3.4707 12.3242C1.55388 12.3242 0 13.953 0 15.9621C0 17.9713 1.55388 19.6 3.4707 19.6Z" fill="#8C54FD"/>
<path id="Vector_2" d="M3.4707 7.77773C5.38751 7.77773 6.94139 6.14899 6.94139 4.13984C6.94139 2.13069 5.38751 0.501953 3.4707 0.501953C1.55388 0.501953 0 2.13069 0 4.13984C0 6.14899 1.55388 7.77773 3.4707 7.77773Z" fill="#8C54FD"/>
<path id="Vector_3" d="M15.3751 19.6C17.2919 19.6 18.8458 17.9713 18.8458 15.9621C18.8458 13.953 17.2919 12.3242 15.3751 12.3242C13.4583 12.3242 11.9044 13.953 11.9044 15.9621C11.9044 17.9713 13.4583 19.6 15.3751 19.6Z" fill="#8C54FD"/>
<path id="Vector_4" d="M15.3751 7.77773C17.2919 7.77773 18.8458 6.14899 18.8458 4.13984C18.8458 2.13069 17.2919 0.501953 15.3751 0.501953C13.4583 0.501953 11.9044 2.13069 11.9044 4.13984C11.9044 6.14899 13.4583 7.77773 15.3751 7.77773Z" fill="#8C54FD"/>
<path id="Vector_5" d="M27.2804 19.6C29.1972 19.6 30.7511 17.9713 30.7511 15.9621C30.7511 13.953 29.1972 12.3242 27.2804 12.3242C25.3636 12.3242 23.8097 13.953 23.8097 15.9621C23.8097 17.9713 25.3636 19.6 27.2804 19.6Z" fill="#8C54FD"/>
<path id="Vector_6" d="M39.0456 19.6C40.9625 19.6 42.5163 17.9713 42.5163 15.9621C42.5163 13.953 40.9625 12.3242 39.0456 12.3242C37.1288 12.3242 35.575 13.953 35.575 15.9621C35.575 17.9713 37.1288 19.6 39.0456 19.6Z" fill="#8C54FD"/>
<path id="Vector_7" d="M27.2804 7.77773C29.1972 7.77773 30.7511 6.14899 30.7511 4.13984C30.7511 2.13069 29.1972 0.501953 27.2804 0.501953C25.3636 0.501953 23.8097 2.13069 23.8097 4.13984C23.8097 6.14899 25.3636 7.77773 27.2804 7.77773Z" fill="#8C54FD"/>
<path id="Vector_8" d="M39.0456 7.77773C40.9625 7.77773 42.5163 6.14899 42.5163 4.13984C42.5163 2.13069 40.9625 0.501953 39.0456 0.501953C37.1288 0.501953 35.575 2.13069 35.575 4.13984C35.575 6.14899 37.1288 7.77773 39.0456 7.77773Z" fill="#8C54FD"/>
<path id="Vector_9" d="M3.4707 31.7523C5.38751 31.7523 6.94139 30.1236 6.94139 28.1145C6.94139 26.1053 5.38751 24.4766 3.4707 24.4766C1.55388 24.4766 0 26.1053 0 28.1145C0 30.1236 1.55388 31.7523 3.4707 31.7523Z" fill="#8C54FD"/>
<path id="Vector_10" d="M15.3751 31.7523C17.2919 31.7523 18.8458 30.1236 18.8458 28.1145C18.8458 26.1053 17.2919 24.4766 15.3751 24.4766C13.4583 24.4766 11.9044 26.1053 11.9044 28.1145C11.9044 30.1236 13.4583 31.7523 15.3751 31.7523Z" fill="#8C54FD"/>
<path id="Vector_11" d="M27.2804 31.7523C29.1972 31.7523 30.7511 30.1236 30.7511 28.1145C30.7511 26.1053 29.1972 24.4766 27.2804 24.4766C25.3636 24.4766 23.8097 26.1053 23.8097 28.1145C23.8097 30.1236 25.3636 31.7523 27.2804 31.7523Z" fill="#8C54FD"/>
<path id="Vector_12" d="M39.0456 31.4242C40.9625 31.4242 42.5163 29.7955 42.5163 27.7863C42.5163 25.7772 40.9625 24.1484 39.0456 24.1484C37.1288 24.1484 35.575 25.7772 35.575 27.7863C35.575 29.7955 37.1288 31.4242 39.0456 31.4242Z" fill="#8C54FD"/>
<path id="Vector_13" d="M3.4707 43.9018C5.38751 43.9018 6.94139 42.273 6.94139 40.2639C6.94139 38.2547 5.38751 36.626 3.4707 36.626C1.55388 36.626 0 38.2547 0 40.2639C0 42.273 1.55388 43.9018 3.4707 43.9018Z" fill="#8C54FD"/>
<path id="Vector_14" d="M15.3751 43.9018C17.2919 43.9018 18.8458 42.273 18.8458 40.2639C18.8458 38.2547 17.2919 36.626 15.3751 36.626C13.4583 36.626 11.9044 38.2547 11.9044 40.2639C11.9044 42.273 13.4583 43.9018 15.3751 43.9018Z" fill="#8C54FD"/>
<path id="Vector_15" d="M27.2804 43.9018C29.1972 43.9018 30.7511 42.273 30.7511 40.2639C30.7511 38.2547 29.1972 36.626 27.2804 36.626C25.3636 36.626 23.8097 38.2547 23.8097 40.2639C23.8097 42.273 25.3636 43.9018 27.2804 43.9018Z" fill="#8C54FD"/>
<path id="Vector_16" d="M39.0456 43.9018C40.9625 43.9018 42.5163 42.273 42.5163 40.2639C42.5163 38.2547 40.9625 36.626 39.0456 36.626C37.1288 36.626 35.575 38.2547 35.575 40.2639C35.575 42.273 37.1288 43.9018 39.0456 43.9018Z" fill="#8C54FD"/>
</g>
</svg>
