<svg width="25" height="25" viewBox="0 0 25 25" fill="none" xmlns="http://www.w3.org/2000/svg">
<g id="Group 692">
<g id="Vector">
<path d="M12.5009 0C9.10608 0 8.68004 0.014844 7.34669 0.0755211C6.01595 0.136459 5.10761 0.347136 4.31281 0.65625C3.49066 0.975521 2.79326 1.4026 2.09846 2.09766C1.40314 2.79245 0.976052 3.48984 0.655736 4.31172C0.345837 5.10677 0.134897 6.01537 0.0750008 7.34557C0.0156252 8.67891 0 9.10521 0 12.5C0 15.8948 0.0151046 16.3195 0.0755219 17.6529C0.13672 18.9836 0.3474 19.8919 0.656257 20.6867C0.975792 21.5089 1.40288 22.2063 2.09794 22.901C2.79248 23.5964 3.48988 24.0245 4.3115 24.3438C5.10682 24.6529 6.01543 24.8635 7.34591 24.9245C8.67926 24.9852 9.10504 25 12.4996 25C15.8947 25 16.3194 24.9852 17.6528 24.9245C18.9835 24.8635 19.8929 24.6529 20.6882 24.3438C21.5101 24.0245 22.2065 23.5964 22.901 22.901C23.5963 22.2063 24.0234 21.5089 24.3437 20.687C24.651 19.8919 24.862 18.9833 24.9245 17.6531C24.9844 16.3198 25 15.8948 25 12.5C25 9.10521 24.9844 8.67917 24.9245 7.34583C24.862 6.0151 24.651 5.10677 24.3437 4.31198C24.0234 3.48984 23.5963 2.79245 22.901 2.09766C22.2057 1.40234 21.5104 0.975261 20.6875 0.65625C19.8906 0.347136 18.9817 0.136459 17.651 0.0755211C16.3176 0.014844 15.8931 0 12.4973 0H12.5009ZM11.3795 2.2526C11.7124 2.25208 12.0837 2.2526 12.5009 2.2526C15.8384 2.2526 16.234 2.26458 17.552 2.32448C18.7708 2.38021 19.4322 2.58385 19.8729 2.75495C20.4562 2.98151 20.8721 3.25234 21.3093 3.68984C21.7468 4.12734 22.0177 4.54401 22.2448 5.12734C22.4159 5.56745 22.6198 6.22891 22.6752 7.44766C22.7351 8.76536 22.7482 9.1612 22.7482 12.4971C22.7482 15.8331 22.7351 16.2289 22.6752 17.5466C22.6195 18.7654 22.4159 19.4268 22.2448 19.8669C22.0182 20.4503 21.7468 20.8656 21.3093 21.3029C20.8718 21.7404 20.4565 22.0112 19.8729 22.2378C19.4328 22.4096 18.7708 22.6128 17.552 22.6685C16.2343 22.7284 15.8384 22.7414 12.5009 22.7414C9.16312 22.7414 8.76754 22.7284 7.44982 22.6685C6.23105 22.6122 5.56959 22.4086 5.1287 22.2375C4.54536 22.0109 4.12869 21.7401 3.69118 21.3026C3.25368 20.8651 2.98284 20.4495 2.75576 19.8659C2.58466 19.4258 2.38075 18.7643 2.32529 17.5456C2.26539 16.2279 2.25341 15.832 2.25341 12.494C2.25341 9.15599 2.26539 8.76224 2.32529 7.44453C2.38102 6.22578 2.58466 5.56432 2.75576 5.1237C2.98232 4.54036 3.25368 4.1237 3.69118 3.6862C4.12869 3.2487 4.54536 2.97786 5.1287 2.75078C5.56933 2.57891 6.23105 2.37578 7.44982 2.31979C8.60295 2.26771 9.04983 2.25208 11.3795 2.24948V2.2526Z" fill="url(#paint0_radial_93_2114)"/>
<path d="M19.1465 4.29742C18.8498 4.29742 18.5598 4.38541 18.3131 4.55025C18.0664 4.7151 17.8741 4.9494 17.7606 5.22352C17.6471 5.49763 17.6174 5.79926 17.6753 6.09025C17.7333 6.38123 17.8762 6.64851 18.086 6.85826C18.2958 7.06802 18.5632 7.21084 18.8542 7.26866C19.1452 7.32648 19.4468 7.2967 19.7209 7.18309C19.995 7.06948 20.2292 6.87714 20.394 6.6304C20.5587 6.38365 20.6466 6.09359 20.6465 5.7969C20.6465 4.96877 19.9746 4.2969 19.1465 4.2969V4.29742Z" fill="url(#paint1_radial_93_2114)"/>
<path fill-rule="evenodd" clip-rule="evenodd" d="M12.474 6.05002C8.92894 6.05002 6.05469 8.92424 6.05469 12.4693C6.05469 16.0143 8.92894 18.8873 12.474 18.8873C16.0191 18.8873 18.8926 16.0143 18.8926 12.4693C18.8926 8.92424 16.0191 6.05002 12.474 6.05002ZM12.5 16.6016C14.7652 16.6016 16.6016 14.7653 16.6016 12.5C16.6016 10.2348 14.7652 8.39846 12.5 8.39846C10.2348 8.39846 8.39844 10.2348 8.39844 12.5C8.39844 14.7653 10.2348 16.6016 12.5 16.6016Z" fill="url(#paint2_radial_93_2114)"/>
</g>
<g id="Vector_2">
<path d="M12.5009 0C9.10608 0 8.68004 0.014844 7.34669 0.0755211C6.01595 0.136459 5.10761 0.347136 4.31281 0.65625C3.49066 0.975521 2.79326 1.4026 2.09846 2.09766C1.40314 2.79245 0.976052 3.48984 0.655736 4.31172C0.345837 5.10677 0.134897 6.01537 0.0750008 7.34557C0.0156252 8.67891 0 9.10521 0 12.5C0 15.8948 0.0151046 16.3195 0.0755219 17.6529C0.13672 18.9836 0.3474 19.8919 0.656257 20.6867C0.975792 21.5089 1.40288 22.2063 2.09794 22.901C2.79248 23.5964 3.48988 24.0245 4.3115 24.3438C5.10682 24.6529 6.01543 24.8635 7.34591 24.9245C8.67926 24.9852 9.10504 25 12.4996 25C15.8947 25 16.3194 24.9852 17.6528 24.9245C18.9835 24.8635 19.8929 24.6529 20.6882 24.3438C21.5101 24.0245 22.2065 23.5964 22.901 22.901C23.5963 22.2063 24.0234 21.5089 24.3437 20.687C24.651 19.8919 24.862 18.9833 24.9245 17.6531C24.9844 16.3198 25 15.8948 25 12.5C25 9.10521 24.9844 8.67917 24.9245 7.34583C24.862 6.0151 24.651 5.10677 24.3437 4.31198C24.0234 3.48984 23.5963 2.79245 22.901 2.09766C22.2057 1.40234 21.5104 0.975261 20.6875 0.65625C19.8906 0.347136 18.9817 0.136459 17.651 0.0755211C16.3176 0.014844 15.8931 0 12.4973 0H12.5009ZM11.3795 2.2526C11.7124 2.25208 12.0837 2.2526 12.5009 2.2526C15.8384 2.2526 16.234 2.26458 17.552 2.32448C18.7708 2.38021 19.4322 2.58385 19.8729 2.75495C20.4562 2.98151 20.8721 3.25234 21.3093 3.68984C21.7468 4.12734 22.0177 4.54401 22.2448 5.12734C22.4159 5.56745 22.6198 6.22891 22.6752 7.44766C22.7351 8.76536 22.7482 9.1612 22.7482 12.4971C22.7482 15.8331 22.7351 16.2289 22.6752 17.5466C22.6195 18.7654 22.4159 19.4268 22.2448 19.8669C22.0182 20.4503 21.7468 20.8656 21.3093 21.3029C20.8718 21.7404 20.4565 22.0112 19.8729 22.2378C19.4328 22.4096 18.7708 22.6128 17.552 22.6685C16.2343 22.7284 15.8384 22.7414 12.5009 22.7414C9.16312 22.7414 8.76754 22.7284 7.44982 22.6685C6.23105 22.6122 5.56959 22.4086 5.1287 22.2375C4.54536 22.0109 4.12869 21.7401 3.69118 21.3026C3.25368 20.8651 2.98284 20.4495 2.75576 19.8659C2.58466 19.4258 2.38075 18.7643 2.32529 17.5456C2.26539 16.2279 2.25341 15.832 2.25341 12.494C2.25341 9.15599 2.26539 8.76224 2.32529 7.44453C2.38102 6.22578 2.58466 5.56432 2.75576 5.1237C2.98232 4.54036 3.25368 4.1237 3.69118 3.6862C4.12869 3.2487 4.54536 2.97786 5.1287 2.75078C5.56933 2.57891 6.23105 2.37578 7.44982 2.31979C8.60295 2.26771 9.04983 2.25208 11.3795 2.24948V2.2526Z" fill="url(#paint3_radial_93_2114)"/>
<path d="M19.1465 4.29742C18.8498 4.29742 18.5598 4.38541 18.3131 4.55025C18.0664 4.7151 17.8741 4.9494 17.7606 5.22352C17.6471 5.49763 17.6174 5.79926 17.6753 6.09025C17.7333 6.38123 17.8762 6.64851 18.086 6.85826C18.2958 7.06802 18.5632 7.21084 18.8542 7.26866C19.1452 7.32648 19.4468 7.2967 19.7209 7.18309C19.995 7.06948 20.2292 6.87714 20.394 6.6304C20.5587 6.38365 20.6466 6.09359 20.6465 5.7969C20.6465 4.96877 19.9746 4.2969 19.1465 4.2969V4.29742Z" fill="url(#paint4_radial_93_2114)"/>
<path fill-rule="evenodd" clip-rule="evenodd" d="M12.474 6.05002C8.92894 6.05002 6.05469 8.92424 6.05469 12.4693C6.05469 16.0143 8.92894 18.8873 12.474 18.8873C16.0191 18.8873 18.8926 16.0143 18.8926 12.4693C18.8926 8.92424 16.0191 6.05002 12.474 6.05002ZM12.5 16.6016C14.7652 16.6016 16.6016 14.7653 16.6016 12.5C16.6016 10.2348 14.7652 8.39846 12.5 8.39846C10.2348 8.39846 8.39844 10.2348 8.39844 12.5C8.39844 14.7653 10.2348 16.6016 12.5 16.6016Z" fill="url(#paint5_radial_93_2114)"/>
</g>
</g>
<defs>
<radialGradient id="paint0_radial_93_2114" cx="0" cy="0" r="1" gradientUnits="userSpaceOnUse" gradientTransform="translate(6.64066 26.9255) rotate(-90) scale(24.7768 23.0444)">
<stop stop-color="#FFDD55"/>
<stop offset="0.1" stop-color="#FFDD55"/>
<stop offset="0.5" stop-color="#FF543E"/>
<stop offset="1" stop-color="#C837AB"/>
</radialGradient>
<radialGradient id="paint1_radial_93_2114" cx="0" cy="0" r="1" gradientUnits="userSpaceOnUse" gradientTransform="translate(6.64066 26.9255) rotate(-90) scale(24.7768 23.0444)">
<stop stop-color="#FFDD55"/>
<stop offset="0.1" stop-color="#FFDD55"/>
<stop offset="0.5" stop-color="#FF543E"/>
<stop offset="1" stop-color="#C837AB"/>
</radialGradient>
<radialGradient id="paint2_radial_93_2114" cx="0" cy="0" r="1" gradientUnits="userSpaceOnUse" gradientTransform="translate(6.64066 26.9255) rotate(-90) scale(24.7768 23.0444)">
<stop stop-color="#FFDD55"/>
<stop offset="0.1" stop-color="#FFDD55"/>
<stop offset="0.5" stop-color="#FF543E"/>
<stop offset="1" stop-color="#C837AB"/>
</radialGradient>
<radialGradient id="paint3_radial_93_2114" cx="0" cy="0" r="1" gradientUnits="userSpaceOnUse" gradientTransform="translate(-4.18763 1.80096) rotate(78.6806) scale(11.0754 45.6531)">
<stop stop-color="#3771C8"/>
<stop offset="0.128" stop-color="#3771C8"/>
<stop offset="1" stop-color="#6600FF" stop-opacity="0"/>
</radialGradient>
<radialGradient id="paint4_radial_93_2114" cx="0" cy="0" r="1" gradientUnits="userSpaceOnUse" gradientTransform="translate(-4.18763 1.80096) rotate(78.6806) scale(11.0754 45.6531)">
<stop stop-color="#3771C8"/>
<stop offset="0.128" stop-color="#3771C8"/>
<stop offset="1" stop-color="#6600FF" stop-opacity="0"/>
</radialGradient>
<radialGradient id="paint5_radial_93_2114" cx="0" cy="0" r="1" gradientUnits="userSpaceOnUse" gradientTransform="translate(-4.18763 1.80096) rotate(78.6806) scale(11.0754 45.6531)">
<stop stop-color="#3771C8"/>
<stop offset="0.128" stop-color="#3771C8"/>
<stop offset="1" stop-color="#6600FF" stop-opacity="0"/>
</radialGradient>
</defs>
</svg>
