<svg width="37" height="10" viewBox="0 0 37 10" fill="none" xmlns="http://www.w3.org/2000/svg">
<g id="Group 36715">
<path id="Vector" d="M8.20996 5.14344C8.20996 2.68507 6.40139 0.692162 4.17041 0.692162C1.93943 0.692162 0.130859 2.68507 0.130859 5.14344C0.130859 7.60182 1.93943 9.59473 4.17041 9.59473C6.40139 9.59473 8.20996 7.60182 8.20996 5.14344Z" fill="#A259FF"/>
<path id="Vector_2" d="M22.3484 5.14344C22.3484 2.68507 20.5398 0.692162 18.3088 0.692162C16.0779 0.692162 14.2693 2.68507 14.2693 5.14344C14.2693 7.60182 16.0779 9.59473 18.3088 9.59473C20.5398 9.59473 22.3484 7.60182 22.3484 5.14344Z" fill="#CED2D6"/>
<path id="Vector_3" d="M36.4867 5.14344C36.4867 2.68507 34.6781 0.692162 32.4471 0.692162C30.2162 0.692162 28.4076 2.68507 28.4076 5.14344C28.4076 7.60182 30.2162 9.59473 32.4471 9.59473C34.6781 9.59473 36.4867 7.60182 36.4867 5.14344Z" fill="#CED2D6"/>
</g>
</svg>
