<svg xmlns="http://www.w3.org/2000/svg" width="35" height="35" viewBox="0 0 35 35" fill="none">
  <path d="M16.8927 29.6011L16.8833 29.5962L16.851 29.5792C16.8235 29.5647 16.7843 29.5438 16.7342 29.5168C16.6339 29.4627 16.4899 29.3837 16.3083 29.281C15.9454 29.0755 15.4314 28.7744 14.8166 28.386C13.5897 27.611 11.9478 26.4799 10.2994 25.0594C7.07783 22.2831 3.5 18.1165 3.5 13.125C3.5 8.77576 7.02576 5.25 11.375 5.25C13.8502 5.25 16.057 6.39166 17.5 8.17526C18.943 6.39166 21.1498 5.25 23.625 5.25C27.9742 5.25 31.5 8.77576 31.5 13.125C31.5 18.1165 27.9222 22.2831 24.7006 25.0594C23.0522 26.4799 21.4103 27.611 20.1834 28.386C19.5686 28.7744 19.0546 29.0755 18.6917 29.281C18.5101 29.3837 18.3661 29.4627 18.2658 29.5168C18.2157 29.5438 18.1765 29.5647 18.149 29.5792L18.1167 29.5962L18.1073 29.6011L18.1043 29.6026C17.7275 29.8025 17.2725 29.8025 16.8968 29.6032L16.8927 29.6011Z" fill="#8C54FD"/>
</svg>