<svg width="26" height="26" viewBox="0 0 26 26" fill="none" xmlns="http://www.w3.org/2000/svg">
<g id="Group 692">
<g id="Vector">
<path d="M13.0009 0C9.47033 0 9.02724 0.0154377 7.64056 0.0785419C6.25659 0.141917 5.31191 0.361021 4.48532 0.6825C3.63029 1.01454 2.90499 1.45871 2.1824 2.18156C1.45927 2.90415 1.01509 3.62944 0.681965 4.48419C0.35967 5.31104 0.140293 6.25598 0.0780008 7.6394C0.0162502 9.02606 0 9.46942 0 13C0 16.5306 0.0157087 16.9723 0.0785427 18.359C0.142189 19.7429 0.361296 20.6876 0.682507 21.5142C1.01482 22.3692 1.45899 23.0945 2.18186 23.8171C2.90418 24.5402 3.62948 24.9855 4.48396 25.3175C5.3111 25.639 6.25604 25.8581 7.63975 25.9215C9.02643 25.9846 9.46924 26 12.9996 26C16.5305 26 16.9722 25.9846 18.3589 25.9215C19.7429 25.8581 20.6886 25.639 21.5158 25.3175C22.3705 24.9855 23.0947 24.5402 23.8171 23.8171C24.5402 23.0945 24.9844 22.3692 25.3175 21.5145C25.6371 20.6876 25.8565 19.7427 25.9215 18.3592C25.9837 16.9726 26 16.5306 26 13C26 9.46942 25.9837 9.02633 25.9215 7.63967C25.8565 6.25571 25.6371 5.31104 25.3175 4.48446C24.9844 3.62944 24.5402 2.90415 23.8171 2.18156C23.0939 1.45844 22.3708 1.01427 21.515 0.6825C20.6862 0.361021 19.741 0.141917 18.357 0.0785419C16.9703 0.0154377 16.5289 0 12.9972 0H13.0009ZM11.8347 2.34271C12.1809 2.34217 12.5671 2.34271 13.0009 2.34271C16.472 2.34271 16.8834 2.35517 18.2541 2.41746C19.5216 2.47542 20.2095 2.68721 20.6678 2.86515C21.2745 3.10077 21.707 3.38244 22.1617 3.83744C22.6167 4.29244 22.8984 4.72577 23.1346 5.33244C23.3125 5.79015 23.5246 6.47806 23.5822 7.74556C23.6445 9.11598 23.6581 9.52765 23.6581 12.997C23.6581 16.4664 23.6445 16.8781 23.5822 18.2485C23.5243 19.516 23.3125 20.2039 23.1346 20.6616C22.8989 21.2683 22.6167 21.7003 22.1617 22.155C21.7067 22.61 21.2747 22.8916 20.6678 23.1273C20.2101 23.306 19.5216 23.5173 18.2541 23.5752C16.8837 23.6375 16.472 23.6511 13.0009 23.6511C9.52964 23.6511 9.11824 23.6375 7.74781 23.5752C6.4803 23.5167 5.79237 23.3049 5.33385 23.127C4.72717 22.8914 4.29384 22.6097 3.83883 22.1547C3.38383 21.6997 3.10216 21.2675 2.86599 20.6605C2.68805 20.2028 2.47598 19.5149 2.4183 18.2474C2.356 16.877 2.34355 16.4653 2.34355 12.9938C2.34355 9.52223 2.356 9.11273 2.4183 7.74231C2.47626 6.47481 2.68805 5.7869 2.86599 5.32865C3.10162 4.72198 3.38383 4.28865 3.83883 3.83365C4.29384 3.37865 4.72717 3.09698 5.33385 2.86081C5.7921 2.68206 6.4803 2.47081 7.74781 2.41258C8.94707 2.35842 9.41183 2.34217 11.8347 2.33946V2.34271Z" fill="#CED2D6"/>
<path d="M19.9124 4.46932C19.6038 4.46932 19.3022 4.56082 19.0456 4.73226C18.789 4.9037 18.5891 5.14737 18.471 5.43246C18.353 5.71754 18.3221 6.03123 18.3824 6.33386C18.4426 6.63648 18.5912 6.91445 18.8094 7.1326C19.0277 7.35074 19.3057 7.49928 19.6083 7.55941C19.911 7.61954 20.2247 7.58857 20.5097 7.47041C20.7948 7.35226 21.0384 7.15222 21.2097 6.89561C21.3811 6.639 21.4725 6.33734 21.4724 6.02877C21.4724 5.16752 20.7736 4.46877 19.9124 4.46877V4.46932Z" fill="#CED2D6"/>
<path fill-rule="evenodd" clip-rule="evenodd" d="M12.973 6.29202C9.2861 6.29202 6.29688 9.28121 6.29688 12.9681C6.29688 16.6549 9.2861 19.6428 12.973 19.6428C16.6599 19.6428 19.6483 16.6549 19.6483 12.9681C19.6483 9.28121 16.6599 6.29202 12.973 6.29202ZM13 17.2656C15.3558 17.2656 17.2656 15.3559 17.2656 13C17.2656 10.6442 15.3558 8.7344 13 8.7344C10.6442 8.7344 8.73438 10.6442 8.73438 13C8.73438 15.3559 10.6442 17.2656 13 17.2656Z" fill="#CED2D6"/>
</g>
<g id="Vector_2">
<path d="M13.0009 0C9.47033 0 9.02724 0.0154377 7.64056 0.0785419C6.25659 0.141917 5.31191 0.361021 4.48532 0.6825C3.63029 1.01454 2.90499 1.45871 2.1824 2.18156C1.45927 2.90415 1.01509 3.62944 0.681965 4.48419C0.35967 5.31104 0.140293 6.25598 0.0780008 7.6394C0.0162502 9.02606 0 9.46942 0 13C0 16.5306 0.0157087 16.9723 0.0785427 18.359C0.142189 19.7429 0.361296 20.6876 0.682507 21.5142C1.01482 22.3692 1.45899 23.0945 2.18186 23.8171C2.90418 24.5402 3.62948 24.9855 4.48396 25.3175C5.3111 25.639 6.25604 25.8581 7.63975 25.9215C9.02643 25.9846 9.46924 26 12.9996 26C16.5305 26 16.9722 25.9846 18.3589 25.9215C19.7429 25.8581 20.6886 25.639 21.5158 25.3175C22.3705 24.9855 23.0947 24.5402 23.8171 23.8171C24.5402 23.0945 24.9844 22.3692 25.3175 21.5145C25.6371 20.6876 25.8565 19.7427 25.9215 18.3592C25.9837 16.9726 26 16.5306 26 13C26 9.46942 25.9837 9.02633 25.9215 7.63967C25.8565 6.25571 25.6371 5.31104 25.3175 4.48446C24.9844 3.62944 24.5402 2.90415 23.8171 2.18156C23.0939 1.45844 22.3708 1.01427 21.515 0.6825C20.6862 0.361021 19.741 0.141917 18.357 0.0785419C16.9703 0.0154377 16.5289 0 12.9972 0H13.0009ZM11.8347 2.34271C12.1809 2.34217 12.5671 2.34271 13.0009 2.34271C16.472 2.34271 16.8834 2.35517 18.2541 2.41746C19.5216 2.47542 20.2095 2.68721 20.6678 2.86515C21.2745 3.10077 21.707 3.38244 22.1617 3.83744C22.6167 4.29244 22.8984 4.72577 23.1346 5.33244C23.3125 5.79015 23.5246 6.47806 23.5822 7.74556C23.6445 9.11598 23.6581 9.52765 23.6581 12.997C23.6581 16.4664 23.6445 16.8781 23.5822 18.2485C23.5243 19.516 23.3125 20.2039 23.1346 20.6616C22.8989 21.2683 22.6167 21.7003 22.1617 22.155C21.7067 22.61 21.2747 22.8916 20.6678 23.1273C20.2101 23.306 19.5216 23.5173 18.2541 23.5752C16.8837 23.6375 16.472 23.6511 13.0009 23.6511C9.52964 23.6511 9.11824 23.6375 7.74781 23.5752C6.4803 23.5167 5.79237 23.3049 5.33385 23.127C4.72717 22.8914 4.29384 22.6097 3.83883 22.1547C3.38383 21.6997 3.10216 21.2675 2.86599 20.6605C2.68805 20.2028 2.47598 19.5149 2.4183 18.2474C2.356 16.877 2.34355 16.4653 2.34355 12.9938C2.34355 9.52223 2.356 9.11273 2.4183 7.74231C2.47626 6.47481 2.68805 5.7869 2.86599 5.32865C3.10162 4.72198 3.38383 4.28865 3.83883 3.83365C4.29384 3.37865 4.72717 3.09698 5.33385 2.86081C5.7921 2.68206 6.4803 2.47081 7.74781 2.41258C8.94707 2.35842 9.41183 2.34217 11.8347 2.33946V2.34271Z" fill="#CED2D6"/>
<path d="M19.9124 4.46932C19.6038 4.46932 19.3022 4.56082 19.0456 4.73226C18.789 4.9037 18.5891 5.14737 18.471 5.43246C18.353 5.71754 18.3221 6.03123 18.3824 6.33386C18.4426 6.63648 18.5912 6.91445 18.8094 7.1326C19.0277 7.35074 19.3057 7.49928 19.6083 7.55941C19.911 7.61954 20.2247 7.58857 20.5097 7.47041C20.7948 7.35226 21.0384 7.15222 21.2097 6.89561C21.3811 6.639 21.4725 6.33734 21.4724 6.02877C21.4724 5.16752 20.7736 4.46877 19.9124 4.46877V4.46932Z" fill="#CED2D6"/>
<path fill-rule="evenodd" clip-rule="evenodd" d="M12.973 6.29202C9.2861 6.29202 6.29688 9.28121 6.29688 12.9681C6.29688 16.6549 9.2861 19.6428 12.973 19.6428C16.6599 19.6428 19.6483 16.6549 19.6483 12.9681C19.6483 9.28121 16.6599 6.29202 12.973 6.29202ZM13 17.2656C15.3558 17.2656 17.2656 15.3559 17.2656 13C17.2656 10.6442 15.3558 8.7344 13 8.7344C10.6442 8.7344 8.73438 10.6442 8.73438 13C8.73438 15.3559 10.6442 17.2656 13 17.2656Z" fill="#CED2D6"/>
</g>
</g>
</svg>
