<svg width="168" height="48" viewBox="0 0 168 48" fill="none" xmlns="http://www.w3.org/2000/svg">
<g id="Company logo">
<path id="Vector" d="M167.854 21.8339V18.9522H164.188V14.4722L164.065 14.5093L160.622 15.5377L160.554 15.5579V18.9523H155.119V17.0613C155.119 16.1808 155.321 15.507 155.719 15.0576C156.113 14.6136 156.678 14.3879 157.398 14.3879C157.916 14.3879 158.452 14.507 158.991 14.7417L159.126 14.8007V11.7659L159.063 11.743C158.56 11.5665 157.875 11.4775 157.027 11.4775C155.957 11.4775 154.986 11.7047 154.139 12.1548C153.291 12.6056 152.624 13.2492 152.157 14.0674C151.691 14.8847 151.455 15.8286 151.455 16.8732V18.9522H148.903V21.8339H151.455V33.9739H155.119V21.8339H160.554V29.5486C160.554 32.726 162.089 34.3361 165.117 34.3361C165.615 34.3361 166.138 34.2792 166.673 34.1677C167.217 34.0533 167.588 33.939 167.806 33.817L167.854 33.7891V30.8807L167.705 30.977C167.506 31.1063 167.259 31.212 166.968 31.2907C166.677 31.3707 166.433 31.4108 166.245 31.4108C165.535 31.4108 165.011 31.2242 164.685 30.856C164.356 30.4845 164.189 29.8348 164.189 28.9259V21.8339H167.854ZM140.72 31.4113C139.39 31.4113 138.341 30.9808 137.602 30.1327C136.858 29.2804 136.482 28.0653 136.482 26.5214C136.482 24.9286 136.858 23.6819 137.602 22.8146C138.342 21.9529 139.38 21.5156 140.69 21.5156C141.96 21.5156 142.972 21.9332 143.696 22.7577C144.424 23.5863 144.794 24.823 144.794 26.4344C144.794 28.0656 144.446 29.3186 143.761 30.1568C143.081 30.9887 142.057 31.4113 140.72 31.4113ZM140.882 18.5903C138.345 18.5903 136.33 19.3161 134.893 20.7476C133.457 22.1793 132.729 24.1605 132.729 26.6367C132.729 28.9886 133.439 30.8804 134.841 32.2587C136.243 33.6374 138.151 34.3358 140.511 34.3358C142.971 34.3358 144.946 33.5998 146.383 32.1485C147.819 30.6988 148.547 28.7363 148.547 26.3179C148.547 23.9292 147.864 22.0233 146.517 20.6542C145.169 19.2846 143.273 18.5903 140.882 18.5903ZM126.82 18.5903C125.094 18.5903 123.667 19.0213 122.576 19.8711C121.479 20.7259 120.922 21.847 120.922 23.2037C120.922 23.9089 121.042 24.5353 121.279 25.0667C121.517 25.5997 121.885 26.0691 122.374 26.463C122.859 26.8537 123.608 27.2629 124.601 27.6793C125.436 28.0146 126.058 28.2982 126.453 28.5217C126.84 28.7407 127.114 28.9609 127.269 29.1754C127.419 29.3852 127.496 29.6724 127.496 30.0269C127.496 31.0361 126.722 31.5271 125.129 31.5271C124.538 31.5271 123.864 31.4067 123.125 31.1692C122.392 30.9354 121.7 30.5929 121.074 30.1538L120.922 30.0473V33.4912L120.978 33.5166C121.496 33.7502 122.15 33.9473 122.92 34.1023C123.689 34.2575 124.388 34.3364 124.995 34.3364C126.868 34.3364 128.376 33.9034 129.477 33.0485C130.584 32.1878 131.146 31.0402 131.146 29.6366C131.146 28.6241 130.843 27.7558 130.248 27.0555C129.656 26.3609 128.63 25.7232 127.198 25.1595C126.057 24.7125 125.326 24.3415 125.024 24.0566C124.734 23.7815 124.586 23.3923 124.586 22.8995C124.586 22.4627 124.768 22.1127 125.142 21.8293C125.519 21.5444 126.044 21.3996 126.702 21.3996C127.312 21.3996 127.937 21.4937 128.558 21.6782C129.179 21.8627 129.724 22.1098 130.179 22.4121L130.329 22.512V19.2451L130.272 19.221C129.852 19.0452 129.298 18.8948 128.625 18.7727C127.956 18.6515 127.349 18.5903 126.82 18.5903ZM111.369 31.4113C110.04 31.4113 108.991 30.9808 108.252 30.1327C107.508 29.2804 107.132 28.0656 107.132 26.5214C107.132 24.9286 107.509 23.6819 108.253 22.8146C108.992 21.9529 110.03 21.5156 111.34 21.5156C112.61 21.5156 113.622 21.9332 114.346 22.7577C115.074 23.5863 115.444 24.823 115.444 26.4344C115.444 28.0656 115.096 29.3186 114.411 30.1568C113.731 30.9887 112.708 31.4113 111.369 31.4113ZM111.533 18.5903C108.995 18.5903 106.979 19.3161 105.543 20.7476C104.107 22.1793 103.378 24.1605 103.378 26.6367C103.378 28.9896 104.09 30.8804 105.491 32.2587C106.893 33.6374 108.801 34.3358 111.162 34.3358C113.621 34.3358 115.597 33.5998 117.033 32.1485C118.469 30.6988 119.197 28.7363 119.197 26.3179C119.197 23.9292 118.514 22.0233 117.166 20.6542C115.818 19.2846 113.923 18.5903 111.533 18.5903ZM97.816 21.5536V18.9522H94.1964V33.9736H97.816V26.2895C97.816 24.983 98.1195 23.9095 98.7183 23.0988C99.3095 22.2977 100.097 21.8917 101.059 21.8917C101.385 21.8917 101.751 21.9442 102.148 22.048C102.54 22.1512 102.824 22.2633 102.992 22.3812L103.144 22.4888V18.9265L103.085 18.9019C102.748 18.7621 102.271 18.6916 101.668 18.6916C100.758 18.6916 99.9442 18.9769 99.247 19.5387C98.635 20.0324 98.1927 20.7094 97.8545 21.5536H97.816ZM87.7142 18.5903C86.0536 18.5903 84.5724 18.9379 83.3125 19.6231C82.0501 20.31 81.0737 21.2905 80.4095 22.5373C79.7481 23.7811 79.4123 25.234 79.4123 26.8543C79.4123 28.2736 79.7379 29.5761 80.3814 30.724C81.0252 31.8738 81.9364 32.7733 83.0899 33.3972C84.2418 34.0203 85.5731 34.3362 87.0472 34.3362C88.7674 34.3362 90.236 34.0005 91.4136 33.3384L91.4611 33.3118V30.0746L91.309 30.183C90.7756 30.5623 90.1795 30.8651 89.5382 31.0832C88.8984 31.3011 88.3151 31.4113 87.8037 31.4113C86.3834 31.4113 85.2432 30.9774 84.4156 30.1221C83.5861 29.2657 83.1656 28.0631 83.1656 26.5498C83.1656 25.027 83.6042 23.7935 84.4685 22.8834C85.3302 21.9759 86.4725 21.5156 87.8634 21.5156C89.0531 21.5156 90.2125 21.9088 91.3093 22.6855L91.4611 22.7932V19.3822L91.4121 19.3553C90.9994 19.1297 90.4364 18.9435 89.7375 18.8022C89.0416 18.6613 88.3609 18.5903 87.7142 18.5903ZM76.9194 18.9523H73.2997V33.9736H76.9194V18.9523ZM75.1466 12.5532C74.5508 12.5532 74.0312 12.7512 73.6043 13.1435C73.1757 13.5369 72.9582 14.0322 72.9582 14.6168C72.9582 15.1922 73.1731 15.6785 73.5977 16.0615C74.0195 16.4433 74.5407 16.6368 75.1467 16.6368C75.7525 16.6368 76.2757 16.4433 76.7026 16.0621C77.1322 15.6785 77.3501 15.1923 77.3501 14.6168C77.3501 14.0527 77.1381 13.5624 76.7203 13.1593C76.3028 12.757 75.7732 12.5532 75.1466 12.5532ZM66.1153 17.844V33.9736H69.8093V13.013H64.6966L58.1981 28.5819L51.8916 13.013H46.5707V33.9734H50.0421V17.8425H50.1613L56.8208 33.9736H59.4406L65.9961 17.844H66.1153Z" fill="#9EA5AD"/>
<path id="Vector_2" d="M17.0279 22.6313H0V6.00879H17.0279V22.6313Z" fill="#9EA5AD"/>
<path id="Vector_3" d="M35.8287 22.6313H18.8011V6.00879H35.8287V22.6313Z" fill="#9EA5AD"/>
<path id="Vector_4" d="M17.0274 40.9915H0V24.3691H17.0274V40.9915Z" fill="#9EA5AD"/>
<path id="Vector_5" d="M35.8287 40.9915H18.8011V24.3691H35.8287V40.9915Z" fill="#9EA5AD"/>
</g>
</svg>
