<svg width="115" height="48" viewBox="0 0 115 48" fill="none" xmlns="http://www.w3.org/2000/svg">
<g id="Company logo" clip-path="url(#clip0_3_2319)">
<path id="Vector" d="M15.8137 38.0663C14.0836 38.3595 12.3232 38.4474 10.5021 38.6816L4.9474 22.9786V39.3555C3.21736 39.5313 1.63906 39.7656 0 40V10H4.61372L10.9269 27.0217V10H15.8137V38.0663ZM25.3748 20.9863C27.2568 20.9863 30.1403 20.8984 31.8703 20.8984V25.5858C29.7152 25.5858 27.196 25.5858 25.3748 25.6737V32.6465C28.2281 32.4708 31.0812 32.2362 33.9645 32.1483V36.6597L20.5183 37.6854V10H33.9645V14.6875H25.3748V20.9863ZM52.0243 14.6876H46.9858V36.2501C45.3468 36.2501 43.7077 36.2501 42.1296 36.3085V14.6876H37.0912V10H52.0246L52.0243 14.6876ZM59.916 20.6642H66.5633V25.3516H59.916V35.9864H55.1503V10H68.7183V14.6875H59.916V20.6642ZM76.6099 31.8848C79.3721 31.9432 82.1644 32.1486 84.8659 32.2948V36.9238C80.5255 36.66 76.1851 36.3966 71.7536 36.3085V10H76.6099V31.8848ZM88.9634 37.2461C90.5114 37.3341 92.1505 37.422 93.7288 37.5975V10H88.9634V37.2461ZM115.006 10L108.844 24.2676L115.006 40C113.185 39.7656 111.364 39.4433 109.542 39.1503L106.052 30.4786L102.501 38.4474C100.74 38.1542 99.0406 38.0663 97.2805 37.8319L103.533 24.0917L97.8873 10H103.108L106.295 17.8809L109.694 10H115.006V10Z" fill="#D81F26"/>
</g>
<defs>
<clipPath id="clip0_3_2319">
<rect width="115" height="48" fill="white"/>
</clipPath>
</defs>
</svg>
