<svg width="16" height="16" viewBox="0 0 16 16" fill="none" xmlns="http://www.w3.org/2000/svg">
<g id="heroicons-outline/paint-brush" clip-path="url(#clip0_19_318)">
<path id="Vector" d="M6.35391 10.7482C6.05678 10.0162 5.33867 9.5 4.5 9.5C3.39543 9.5 2.5 10.3954 2.5 11.5C2.5 12.3284 1.82841 13 0.999984 13C0.966188 13 0.932653 12.9989 0.899414 12.9967C1.41765 13.8952 2.38819 14.5 3.49998 14.5C5.15214 14.5 6.49236 13.1645 6.49995 11.5141C6.49998 11.5094 6.5 11.5047 6.5 11.5C6.5 11.2341 6.44811 10.9803 6.35391 10.7482ZM6.35391 10.7482C7.15012 10.4769 7.90745 10.1136 8.61166 9.6685M5.25 9.65125C5.52153 8.85315 5.8854 8.09407 6.3315 7.38834M8.61166 9.6685C9.86531 8.87606 10.9506 7.82413 11.7871 6.56937L14.3711 2.69338C14.4551 2.56728 14.5 2.41913 14.5 2.26759C14.5 1.84366 14.1563 1.5 13.7324 1.5C13.5809 1.5 13.4327 1.54486 13.3066 1.62892L9.43063 4.21291C8.17587 5.04942 7.12394 6.13469 6.3315 7.38834M8.61166 9.6685C8.15975 8.65552 7.34448 7.84025 6.3315 7.38834" stroke="#9EA5AD" stroke-width="1.5" stroke-linecap="round" stroke-linejoin="round"/>
</g>
<defs>
<clipPath id="clip0_19_318">
<rect width="16" height="16" fill="white"/>
</clipPath>
</defs>
</svg>
