<svg xmlns="http://www.w3.org/2000/svg" width="27" height="27" viewBox="0 0 27 27" fill="none">
  <path fill-rule="evenodd" clip-rule="evenodd" d="M13.5 5.90625C13.966 5.90625 14.3438 6.28401 14.3438 6.75V12.6562L20.25 12.6562C20.716 12.6562 21.0938 13.034 21.0938 13.5C21.0938 13.966 20.716 14.3438 20.25 14.3437H14.3438V20.25C14.3438 20.716 13.966 21.0938 13.5 21.0938C13.034 21.0938 12.6562 20.716 12.6562 20.25V14.3437H6.75C6.28401 14.3437 5.90625 13.966 5.90625 13.5C5.90625 13.034 6.28401 12.6562 6.75 12.6562H12.6562V6.75C12.6562 6.28401 13.034 5.90625 13.5 5.90625Z" fill="black"/>
</svg>