<svg width="143" height="48" viewBox="0 0 143 48" fill="none" xmlns="http://www.w3.org/2000/svg">
<g id="Company logo" clip-path="url(#clip0_3_2320)">
<path id="Vector" d="M21.5242 3.0791C9.67771 3.0791 0.0737915 12.4813 0.0737915 24.0792C0.0737915 35.6777 9.67771 45.0791 21.5242 45.0791C33.3719 45.0791 42.9748 35.6777 42.9748 24.0792C42.9748 12.482 33.3719 3.0801 21.5239 3.0801L21.5242 3.0791ZM31.3612 33.3673C30.977 33.9842 30.1522 34.1798 29.5221 33.8011C24.4857 30.7894 18.1456 30.1073 10.679 31.7774C9.95947 31.9379 9.24226 31.4966 9.07833 30.7919C8.91363 30.0872 9.36265 29.3851 10.084 29.2246C18.255 27.3969 25.2639 28.1839 30.9181 31.5668C31.5482 31.9454 31.748 32.7504 31.3612 33.3673ZM33.9867 27.6492C33.5026 28.4196 32.4729 28.6628 31.6865 28.1889C25.9207 24.7192 17.1315 23.7144 10.3117 25.7411C9.4272 26.0026 8.49304 25.5146 8.2246 24.6502C7.95821 23.7843 8.45692 22.8715 9.33986 22.6082C17.13 20.2941 26.8146 21.415 33.436 25.3985C34.2223 25.8725 34.4708 26.8806 33.9867 27.6495V27.6492ZM34.2121 21.6949C27.2987 17.6748 15.8926 17.3051 9.29196 19.2664C8.23203 19.5811 7.11113 18.9953 6.78993 17.9576C6.46872 16.9194 7.06656 15.8228 8.12726 15.5073C15.7043 13.2554 28.3003 13.6905 36.2597 18.3165C37.2151 18.8704 37.5276 20.0759 36.9616 21.008C36.398 21.9414 35.1634 22.2491 34.2131 21.6949H34.2121ZM58.4332 22.4653C54.7293 21.6006 54.071 20.9937 54.071 19.7186C54.071 18.5139 55.2288 17.7031 56.9527 17.7031C58.6228 17.7031 60.2775 18.3187 62.0141 19.5861C62.0654 19.6245 62.1319 19.6398 62.196 19.6298C62.2626 19.6203 62.3189 19.5854 62.3574 19.533L64.1657 17.0373C64.24 16.9345 64.2195 16.7928 64.1196 16.7143C62.0525 15.0911 59.7267 14.3019 57.0065 14.3019C53.008 14.3019 50.2135 16.6514 50.2135 20.013C50.2135 23.6178 52.6238 24.8942 56.7888 25.8795C60.3312 26.6787 60.9306 27.3483 60.9306 28.545C60.9306 29.8716 59.7216 30.6966 57.7749 30.6966C55.613 30.6966 53.8482 29.9819 51.8759 28.3118C51.8272 28.2691 51.7606 28.2516 51.6991 28.2541C51.6325 28.2591 51.5736 28.2892 51.5326 28.3368L49.504 30.6991C49.4194 30.7994 49.4297 30.9449 49.527 31.0301C51.8221 33.0363 54.6448 34.0945 57.6929 34.0945C62.0013 34.0945 64.7856 31.79 64.7856 28.2215C64.7933 25.2105 62.9516 23.5428 58.4409 22.4685L58.4332 22.4653ZM74.5345 18.8893C72.6672 18.8893 71.1355 19.6095 69.8701 21.0853V19.4242C69.8701 19.293 69.7625 19.1862 69.6293 19.1862H66.3122C66.1791 19.1862 66.0715 19.293 66.0715 19.4242V37.8812C66.0715 38.0116 66.1791 38.1194 66.3122 38.1194H69.6293C69.7625 38.1194 69.8701 38.0116 69.8701 37.8812V32.0558C71.1355 33.4425 72.6672 34.1221 74.5345 34.1221C78.0053 34.1221 81.5196 31.5066 81.5196 26.5064C81.5247 21.5053 78.0104 18.889 74.5371 18.889L74.5345 18.8893ZM77.6621 26.5064C77.6621 29.0515 76.0611 30.8295 73.7661 30.8295C71.4992 30.8295 69.7881 28.9713 69.7881 26.5064C69.7881 24.0414 71.4992 22.1836 73.7661 22.1836C76.0227 22.1834 77.6621 24.001 77.6621 26.5062V26.5064ZM90.5231 18.8893C86.0534 18.8893 82.5519 22.2586 82.5519 26.5609C82.5519 30.817 86.0303 34.1497 90.4693 34.1497C94.9544 34.1497 98.4662 30.7919 98.4662 26.5064C98.4662 22.2356 94.9775 18.8898 90.5231 18.8898V18.8893ZM90.5231 30.8546C88.1461 30.8546 86.3531 28.9838 86.3531 26.5052C86.3531 24.0153 88.0846 22.2085 90.4693 22.2085C92.8617 22.2085 94.665 24.0785 94.665 26.5596C94.665 29.049 92.9232 30.8546 90.5231 30.8546ZM108.01 19.1862H104.36V15.5334C104.36 15.4025 104.253 15.2957 104.119 15.2957H100.802C100.669 15.2957 100.559 15.4025 100.559 15.5334V19.1862H98.9657C98.8325 19.1862 98.7249 19.293 98.7249 19.4242V22.2145C98.7249 22.3454 98.8325 22.4525 98.9657 22.4525H100.559V29.6734C100.559 32.5899 102.042 34.0695 104.97 34.0695C106.158 34.0695 107.144 33.8287 108.074 33.3121C108.151 33.272 108.197 33.1918 108.197 33.1065V30.4483C108.197 30.3681 108.154 30.2903 108.082 30.2477C108.01 30.2026 107.921 30.2001 107.846 30.2377C107.208 30.5511 106.591 30.6966 105.9 30.6966C104.837 30.6966 104.36 30.2226 104.36 29.1644V22.4537H108.01C108.143 22.4537 108.251 22.3469 108.251 22.2157V19.4257C108.256 19.2945 108.148 19.1877 108.013 19.1877L108.01 19.1862ZM120.725 19.2005V18.7518C120.725 17.432 121.243 16.8435 122.4 16.8435C123.092 16.8435 123.648 16.9779 124.27 17.181C124.347 17.2046 124.427 17.1928 124.488 17.1479C124.552 17.103 124.588 17.031 124.588 16.9548V14.2189C124.588 14.1143 124.521 14.0218 124.416 13.9909C123.761 13.7996 122.92 13.6032 121.66 13.6032C118.599 13.6032 116.978 15.2919 116.978 18.485V19.1721H115.385C115.251 19.1721 115.141 19.279 115.141 19.4099V22.2145C115.141 22.3454 115.251 22.4525 115.385 22.4525H116.978V33.588C116.978 33.7209 117.088 33.8262 117.221 33.8262H120.536C120.671 33.8262 120.779 33.7209 120.779 33.588V22.4532H123.876L128.62 33.588C128.082 34.7566 127.552 34.9898 126.829 34.9898C126.245 34.9898 125.628 34.8193 125 34.4807C124.941 34.4506 124.87 34.4456 124.808 34.4632C124.744 34.4858 124.69 34.5309 124.665 34.5911L123.54 37.006C123.486 37.1214 123.533 37.2543 123.645 37.3145C124.818 37.9364 125.876 38.2022 127.185 38.2022C129.634 38.2022 130.989 37.0837 132.18 34.0795L137.933 19.5255C137.964 19.4522 137.954 19.3695 137.907 19.3045C137.864 19.2401 137.79 19.2012 137.71 19.2012H134.257C134.152 19.2012 134.06 19.2657 134.027 19.3607L130.489 29.2496L126.617 19.3542C126.581 19.2622 126.491 19.2012 126.391 19.2012H120.725V19.2005ZM113.353 19.1862H110.036C109.903 19.1862 109.793 19.293 109.793 19.4242V33.588C109.793 33.7209 109.903 33.8262 110.036 33.8262H113.353C113.487 33.8262 113.597 33.7209 113.597 33.588V19.4252C113.597 19.294 113.489 19.1872 113.353 19.1872V19.1862ZM111.714 12.7366C110.4 12.7366 109.334 13.7778 109.334 15.064C109.334 16.3509 110.4 17.3934 111.714 17.3934C113.028 17.3934 114.091 16.3509 114.091 15.064C114.091 13.778 113.025 12.7366 111.714 12.7366ZM140.766 23.7404C139.455 23.7404 138.433 22.7085 138.433 21.4554C138.433 20.2023 139.467 19.1586 140.779 19.1586C142.09 19.1586 143.112 20.1903 143.112 21.4424C143.112 22.6955 142.078 23.7404 140.766 23.7404ZM140.779 19.3858C139.583 19.3858 138.678 20.3161 138.678 21.4554C138.678 22.5942 139.578 23.512 140.766 23.512C141.962 23.512 142.866 22.5824 142.866 21.4424C142.866 20.3036 141.967 19.3858 140.779 19.3858ZM141.296 21.6773L141.957 22.5821H141.399L140.804 21.7521H140.295V22.5821H139.829V20.1837H140.92C141.491 20.1837 141.865 20.4689 141.865 20.9488C141.867 21.3421 141.634 21.5823 141.299 21.6773H141.296ZM140.902 20.5953H140.295V21.3538H140.902C141.204 21.3538 141.386 21.2086 141.386 20.9742C141.386 20.7274 141.204 20.5953 140.902 20.5953Z" fill="#9EA5AD"/>
</g>
<defs>
<clipPath id="clip0_3_2320">
<rect width="143" height="48" fill="white"/>
</clipPath>
</defs>
</svg>
