<svg width="34" height="34" viewBox="0 0 34 34" fill="none" xmlns="http://www.w3.org/2000/svg">
<g id="Spotify" clip-path="url(#clip0_42_1557)">
<path id="Vector" d="M16.9991 0.981445C8.1504 0.981445 0.976807 8.15485 0.976807 17.0035C0.976807 25.8526 8.1504 33.0254 16.9991 33.0254C25.8487 33.0254 33.0215 25.8526 33.0215 17.0035C33.0215 8.15542 25.8487 0.982211 16.9989 0.982211L16.9991 0.981445ZM24.3468 24.0899C24.0598 24.5605 23.4437 24.7098 22.973 24.4209C19.2112 22.123 14.4755 21.6026 8.8983 22.8769C8.36086 22.9993 7.82515 22.6626 7.7027 22.1249C7.57968 21.5873 7.91507 21.0516 8.45385 20.9291C14.5572 19.5342 19.7924 20.1351 24.0158 22.7161C24.4864 23.005 24.6357 23.6192 24.3468 24.0899ZM26.3079 19.7267C25.9463 20.315 25.1771 20.5006 24.5898 20.139C20.283 17.4912 13.718 16.7246 8.62394 18.2709C7.96329 18.4704 7.26552 18.0981 7.06501 17.4386C6.86603 16.7779 7.23854 16.0815 7.89805 15.8806C13.7169 14.1151 20.9507 14.9703 25.8965 18.0095C26.4839 18.3711 26.6695 19.1402 26.3079 19.7269V19.7267ZM26.4762 15.1838C21.3123 12.1166 12.7926 11.8346 7.86227 13.331C7.07056 13.5711 6.23331 13.1242 5.99339 12.3325C5.75347 11.5404 6.20002 10.7037 6.9923 10.463C12.6519 8.7449 22.0604 9.07685 28.0057 12.6063C28.7193 13.0289 28.9528 13.9486 28.5299 14.6598C28.109 15.3719 27.1868 15.6066 26.477 15.1838H26.4762Z" fill="#1ED760"/>
</g>
<defs>
<clipPath id="clip0_42_1557">
<rect width="32.1429" height="32.1429" fill="white" transform="translate(0.928467 0.928711)"/>
</clipPath>
</defs>
</svg>
