<svg xmlns="http://www.w3.org/2000/svg" width="34" height="34" viewBox="0 0 34 34" fill="none">
  <rect x="0.928551" y="0.928711" width="32.1429" height="32.1429" rx="16.0714" fill="#F6F7F9"/>
  <path d="M9.41714 20.8097C9.57411 19.51 10.1071 18.7824 11.1116 18.0364C12.5489 17.0261 14.3442 17.5976 14.3442 17.5976V14.2074C14.7807 14.1962 15.2173 14.2221 15.649 14.2847V18.6476C15.649 18.6476 13.8542 18.0761 12.417 19.0869C11.413 19.8323 10.8789 20.5605 10.7225 21.8602C10.7176 22.5659 10.85 23.4885 11.4599 24.2861C11.3091 24.2088 11.1554 24.1207 10.9988 24.0218C9.65532 23.1197 9.4106 21.7662 9.41714 20.8097ZM23.062 7.93885C22.0733 6.85544 21.6994 5.76158 21.5642 4.99316H22.808C22.808 4.99316 22.56 7.00797 24.3673 8.98935L24.3924 9.01599C23.9053 8.70959 23.4586 8.34793 23.062 7.93885ZM29.0535 11.0104V15.2856C29.0535 15.2856 27.4664 15.2234 26.2918 14.9246C24.6518 14.5067 23.5977 13.8657 23.5977 13.8657C23.5977 13.8657 22.8696 13.4087 22.8107 13.3768V22.205C22.8107 22.6965 22.6761 23.9241 22.2657 24.948C21.7299 26.2874 20.9031 27.1665 20.7511 27.3462C20.7511 27.3462 19.7455 28.5346 17.9714 29.3349C16.3723 30.0568 14.9683 30.0386 14.5486 30.0568C14.5486 30.0568 12.1216 30.153 9.93764 28.7337C9.46538 28.4208 9.02455 28.0665 8.62085 27.6753L8.63175 27.6832C10.8162 29.1025 13.2427 29.0063 13.2427 29.0063C13.6629 28.9881 15.0669 29.0063 16.6655 28.2844C18.4379 27.4841 19.4452 26.2957 19.4452 26.2957C19.5956 26.116 20.4262 25.2369 20.9598 23.897C21.3691 22.8736 21.5048 21.6455 21.5048 21.154V12.3268C21.5637 12.3592 22.2913 12.8163 22.2913 12.8163C22.2913 12.8163 23.3459 13.4578 24.9859 13.8752C26.161 14.174 27.7476 14.2361 27.7476 14.2361V10.8861C28.2905 11.0078 28.7532 11.0407 29.0535 11.0104Z" fill="#EE1D52"/>
  <path d="M27.7482 10.8861V14.2351C27.7482 14.2351 26.1616 14.1729 24.9865 13.8741C23.3465 13.4562 22.2919 12.8152 22.2919 12.8152C22.2919 12.8152 21.5642 12.3582 21.5054 12.3258V21.155C21.5054 21.6466 21.3708 22.8747 20.9604 23.898C20.4246 25.2379 19.5978 26.1171 19.4457 26.2968C19.4457 26.2968 18.4396 27.4852 16.6661 28.2855C15.0675 29.0074 13.6635 28.9891 13.2433 29.0074C13.2433 29.0074 10.8168 29.1035 8.6323 27.6842L8.6214 27.6764C8.39076 27.453 8.17367 27.2172 7.97118 26.9701C7.27408 26.1202 6.84678 25.1152 6.73941 24.8284C6.73922 24.8272 6.73922 24.8259 6.73941 24.8247C6.56663 24.3264 6.20364 23.1296 6.25324 21.9704C6.34099 19.9253 7.06043 18.6701 7.25064 18.3556C7.75442 17.498 8.40964 16.7308 9.18714 16.0879C9.87324 15.5332 10.6509 15.0919 11.4883 14.782C12.3935 14.4181 13.3628 14.2231 14.3442 14.2074V17.5976C14.3442 17.5976 12.5489 17.0282 11.1122 18.0364C10.1077 18.7824 9.57466 19.51 9.41769 20.8097C9.41115 21.7662 9.65587 23.1197 10.9983 24.0223C11.1549 24.1216 11.3086 24.2097 11.4594 24.2867C11.6939 24.5915 11.9793 24.8571 12.3042 25.0728C13.6155 25.9029 14.7143 25.9609 16.1194 25.4218C17.0563 25.0613 17.7616 24.249 18.0886 23.349C18.2941 22.7869 18.2913 22.2212 18.2913 21.6361V4.99316H21.5615C21.6967 5.76158 22.0706 6.85544 23.0593 7.93885C23.4559 8.34793 23.9026 8.70959 24.3897 9.01599C24.5336 9.16487 25.2694 9.9009 26.2139 10.3528C26.7023 10.5863 27.2171 10.7653 27.7482 10.8861Z" fill="black"/>
  <path d="M5.43787 23.7871V23.7897L5.51901 24.0096C5.50969 23.984 5.47954 23.9062 5.43787 23.7871Z" fill="#69C9D0"/>
  <path d="M11.4883 14.7822C10.651 15.0921 9.87329 15.5335 9.18718 16.0882C8.40943 16.7325 7.75438 17.5013 7.25124 18.3605C7.06102 18.674 6.34158 19.9303 6.25383 21.9754C6.20423 23.1345 6.56722 24.3313 6.74 24.8297C6.73981 24.8309 6.73981 24.8321 6.74 24.8333C6.849 25.1175 7.27467 26.1225 7.97177 26.9751C8.17426 27.2222 8.39135 27.458 8.62199 27.6813C7.88303 27.1915 7.224 26.5993 6.66642 25.924C5.97532 25.0814 5.5491 24.0868 5.43792 23.7933C5.43779 23.7912 5.43779 23.7891 5.43792 23.787V23.7833C5.2646 23.2855 4.90052 22.0882 4.95121 20.9275C5.03896 18.8824 5.7584 17.6271 5.94861 17.3126C6.45161 16.4534 7.10668 15.6845 7.88456 15.0403C8.57052 14.4854 9.34823 14.044 10.1857 13.7344C10.708 13.5266 11.2522 13.3734 11.8088 13.2773C12.6476 13.1369 13.5042 13.1248 14.347 13.2412V14.2076C13.3646 14.223 12.3944 14.4181 11.4883 14.7822Z" fill="#69C9D0"/>
  <path d="M21.5642 4.99341H18.294V21.6369C18.294 22.2219 18.294 22.7861 18.0913 23.3498C17.761 24.2493 17.0585 25.0616 16.1221 25.422C14.7165 25.9632 13.6177 25.9031 12.3069 25.0731C11.9815 24.8584 11.6953 24.5936 11.4599 24.2895C12.5767 24.8605 13.5763 24.8505 14.8146 24.3741C15.7504 24.0137 16.454 23.2014 16.7832 22.3013C16.9892 21.7393 16.9865 21.1735 16.9865 20.589V3.94238H21.5021C21.5021 3.94238 21.4514 4.35611 21.5642 4.99341ZM27.7481 9.96017V10.8863C27.218 10.7653 26.7041 10.5864 26.2166 10.353C25.2721 9.90114 24.5363 9.16511 24.3924 9.01624C24.5594 9.1213 24.7326 9.21689 24.9113 9.3025C26.0596 9.85204 27.1906 10.0161 27.7481 9.96017Z" fill="#69C9D0"/>
</svg>