<svg xmlns="http://www.w3.org/2000/svg" width="18" height="18" viewBox="0 0 18 18" fill="none">
  <path d="M2.53125 14.625H15.4688M2.53125 14.625C2.06526 14.625 1.6875 14.2472 1.6875 13.7812M2.53125 14.625H3.65625C4.12224 14.625 4.5 14.2472 4.5 13.7812M1.6875 13.7812V4.21875M1.6875 13.7812V12.6562C1.6875 12.1903 2.06526 11.8125 2.53125 11.8125M16.3125 13.7812V4.21875M16.3125 13.7812C16.3125 14.2472 15.9347 14.625 15.4688 14.625M16.3125 13.7812V12.6562C16.3125 12.1903 15.9347 11.8125 15.4688 11.8125M15.4688 14.625H14.3438C13.8778 14.625 13.5 14.2472 13.5 13.7812M15.4688 3.375H2.53125M15.4688 3.375C15.9347 3.375 16.3125 3.75276 16.3125 4.21875M15.4688 3.375H14.3438C13.8778 3.375 13.5 3.75276 13.5 4.21875M16.3125 4.21875V5.34375C16.3125 5.80974 15.9347 6.1875 15.4688 6.1875M2.53125 3.375C2.06526 3.375 1.6875 3.75276 1.6875 4.21875M2.53125 3.375H3.65625C4.12224 3.375 4.5 3.75276 4.5 4.21875M1.6875 4.21875V5.34375C1.6875 5.80974 2.06526 6.1875 2.53125 6.1875M2.53125 6.1875H3.65625M2.53125 6.1875C2.06526 6.1875 1.6875 6.56526 1.6875 7.03125V8.15625C1.6875 8.62224 2.06526 9 2.53125 9M3.65625 6.1875C4.12224 6.1875 4.5 5.80974 4.5 5.34375V4.21875M3.65625 6.1875C4.12224 6.1875 4.5 6.56526 4.5 7.03125V8.15625M4.5 4.21875V8.15625M4.5 4.21875C4.5 3.75276 4.87776 3.375 5.34375 3.375H12.6562C13.1222 3.375 13.5 3.75276 13.5 4.21875M14.3438 6.1875H15.4688M14.3438 6.1875C13.8778 6.1875 13.5 5.80974 13.5 5.34375V4.21875M14.3438 6.1875C13.8778 6.1875 13.5 6.56526 13.5 7.03125V8.15625M15.4688 6.1875C15.9347 6.1875 16.3125 6.56526 16.3125 7.03125V8.15625C16.3125 8.62224 15.9347 9 15.4688 9M13.5 4.21875V8.15625M5.34375 9H12.6562M5.34375 9C4.87776 9 4.5 8.62224 4.5 8.15625M5.34375 9C4.87776 9 4.5 9.37776 4.5 9.84375M4.5 8.15625C4.5 8.62224 4.12224 9 3.65625 9M13.5 8.15625C13.5 8.62224 13.1222 9 12.6562 9M13.5 8.15625C13.5 8.62224 13.8778 9 14.3438 9M12.6562 9C13.1222 9 13.5 9.37776 13.5 9.84375M4.5 13.7812V9.84375M4.5 13.7812C4.5 14.2472 4.87776 14.625 5.34375 14.625H12.6562C13.1222 14.625 13.5 14.2472 13.5 13.7812M4.5 13.7812V12.6562C4.5 12.1903 4.12224 11.8125 3.65625 11.8125M13.5 13.7812V9.84375M13.5 13.7812V12.6562C13.5 12.1903 13.8778 11.8125 14.3438 11.8125M13.5 9.84375V10.9688C13.5 11.4347 13.8778 11.8125 14.3438 11.8125M13.5 9.84375C13.5 9.37776 13.8778 9 14.3438 9M4.5 9.84375V10.9688C4.5 11.4347 4.12224 11.8125 3.65625 11.8125M4.5 9.84375C4.5 9.37776 4.12224 9 3.65625 9M2.53125 9H3.65625M2.53125 9C2.06526 9 1.6875 9.37776 1.6875 9.84375V10.9688C1.6875 11.4347 2.06526 11.8125 2.53125 11.8125M14.3438 9H15.4688M15.4688 9C15.9347 9 16.3125 9.37776 16.3125 9.84375V10.9688C16.3125 11.4347 15.9347 11.8125 15.4688 11.8125M2.53125 11.8125H3.65625M14.3438 11.8125H15.4688" stroke="black" stroke-width="1.5" stroke-linecap="round" stroke-linejoin="round"/>
</svg>