<svg width="34" height="34" viewBox="0 0 34 34" fill="none" xmlns="http://www.w3.org/2000/svg">
<g id="youtube">
<path id="bg" d="M3.1831 10.9138C3.3122 8.92617 4.91022 7.36848 6.89957 7.26992C9.7803 7.1272 13.8977 6.95508 17 6.95508C20.1023 6.95508 24.2197 7.1272 27.1004 7.26992C29.0898 7.36848 30.6878 8.92617 30.8169 10.9138C30.9406 12.8181 31.0625 15.1612 31.0625 16.9997C31.0625 18.8382 30.9406 21.1814 30.8169 23.0857C30.6878 25.0733 29.0898 26.631 27.1004 26.7295C24.2197 26.8722 20.1023 27.0444 17 27.0444C13.8977 27.0444 9.7803 26.8722 6.89958 26.7295C4.91022 26.631 3.3122 25.0733 3.1831 23.0857C3.05941 21.1814 2.9375 18.8382 2.9375 16.9997C2.9375 15.1612 3.05941 12.8181 3.1831 10.9138Z" fill="#FC0D1B"/>
<path id="play" d="M13.9866 12.9824V21.0181L22.0223 17.0003L13.9866 12.9824Z" fill="white"/>
</g>
</svg>
